<svg width="41" height="24" viewBox="0 0 41 24" fill="none" xmlns="http://www.w3.org/2000/svg">
<path d="M4.43663 21V14.736H5.03663V17.592H9.28463V14.736H9.88463V21H9.28463V18.12H5.03663V21H4.43663ZM16.3877 21V19.572L16.3637 19.356V17.004C16.3637 16.42 16.2037 15.976 15.8837 15.672C15.5717 15.368 15.1117 15.216 14.5037 15.216C14.0717 15.216 13.6677 15.292 13.2917 15.444C12.9237 15.588 12.6077 15.776 12.3437 16.008L12.0437 15.576C12.3557 15.296 12.7317 15.08 13.1717 14.928C13.6117 14.768 14.0717 14.688 14.5517 14.688C15.3277 14.688 15.9237 14.884 16.3397 15.276C16.7557 15.668 16.9637 16.252 16.9637 17.028V21H16.3877ZM14.1317 21.048C13.6677 21.048 13.2637 20.976 12.9197 20.832C12.5837 20.68 12.3237 20.468 12.1397 20.196C11.9637 19.924 11.8757 19.612 11.8757 19.26C11.8757 18.94 11.9477 18.652 12.0917 18.396C12.2437 18.132 12.4917 17.92 12.8357 17.76C13.1797 17.592 13.6397 17.508 14.2157 17.508H16.5197V17.976H14.2277C13.5797 17.976 13.1237 18.096 12.8597 18.336C12.6037 18.576 12.4757 18.876 12.4757 19.236C12.4757 19.636 12.6277 19.956 12.9317 20.196C13.2357 20.436 13.6637 20.556 14.2157 20.556C14.7437 20.556 15.1877 20.436 15.5477 20.196C15.9157 19.956 16.1877 19.608 16.3637 19.152L16.5317 19.56C16.3637 20.016 16.0757 20.38 15.6677 20.652C15.2677 20.916 14.7557 21.048 14.1317 21.048ZM20.7971 21.06C20.3651 21.06 19.9291 20.992 19.4891 20.856C19.0491 20.72 18.6611 20.512 18.3251 20.232L18.5531 19.788C18.8571 20.044 19.2091 20.236 19.6091 20.364C20.0091 20.484 20.4091 20.54 20.8091 20.532C21.2171 20.532 21.5731 20.472 21.8771 20.352C22.1891 20.232 22.4291 20.068 22.5971 19.86C22.7651 19.652 22.8491 19.42 22.8491 19.164C22.8491 18.788 22.6811 18.496 22.3451 18.288C22.0091 18.08 21.5491 17.976 20.9651 17.976H19.9571V17.52H20.9411C21.2771 17.52 21.5731 17.476 21.8291 17.388C22.0931 17.3 22.2971 17.172 22.4411 17.004C22.5931 16.828 22.6691 16.624 22.6691 16.392C22.6691 16.136 22.5811 15.92 22.4051 15.744C22.2371 15.56 22.0051 15.424 21.7091 15.336C21.4211 15.248 21.0971 15.204 20.7371 15.204C20.4251 15.212 20.1011 15.26 19.7651 15.348C19.4371 15.436 19.1131 15.568 18.7931 15.744L18.6011 15.264C18.9531 15.072 19.3091 14.928 19.6691 14.832C20.0291 14.736 20.3931 14.684 20.7611 14.676C21.2251 14.668 21.6491 14.732 22.0331 14.868C22.4171 14.996 22.7211 15.184 22.9451 15.432C23.1691 15.672 23.2811 15.964 23.2811 16.308C23.2811 16.62 23.1851 16.892 22.9931 17.124C22.8091 17.348 22.5531 17.524 22.2251 17.652C21.9051 17.78 21.5451 17.844 21.1451 17.844L21.1931 17.652C21.9131 17.652 22.4691 17.792 22.8611 18.072C23.2611 18.352 23.4611 18.728 23.4611 19.2C23.4611 19.576 23.3411 19.904 23.1011 20.184C22.8611 20.464 22.5371 20.68 22.1291 20.832C21.7291 20.984 21.2851 21.06 20.7971 21.06ZM29.4775 21V19.572L29.4535 19.356V17.004C29.4535 16.42 29.2935 15.976 28.9735 15.672C28.6615 15.368 28.2015 15.216 27.5935 15.216C27.1615 15.216 26.7575 15.292 26.3815 15.444C26.0135 15.588 25.6975 15.776 25.4335 16.008L25.1335 15.576C25.4455 15.296 25.8215 15.08 26.2615 14.928C26.7015 14.768 27.1615 14.688 27.6415 14.688C28.4175 14.688 29.0135 14.884 29.4295 15.276C29.8455 15.668 30.0535 16.252 30.0535 17.028V21H29.4775ZM27.2215 21.048C26.7575 21.048 26.3535 20.976 26.0095 20.832C25.6735 20.68 25.4135 20.468 25.2295 20.196C25.0535 19.924 24.9655 19.612 24.9655 19.26C24.9655 18.94 25.0375 18.652 25.1815 18.396C25.3335 18.132 25.5815 17.92 25.9255 17.76C26.2695 17.592 26.7295 17.508 27.3055 17.508H29.6095V17.976H27.3175C26.6695 17.976 26.2135 18.096 25.9495 18.336C25.6935 18.576 25.5655 18.876 25.5655 19.236C25.5655 19.636 25.7175 19.956 26.0215 20.196C26.3255 20.436 26.7535 20.556 27.3055 20.556C27.8335 20.556 28.2775 20.436 28.6375 20.196C29.0055 19.956 29.2775 19.608 29.4535 19.152L29.6215 19.56C29.4535 20.016 29.1655 20.38 28.7575 20.652C28.3575 20.916 27.8455 21.048 27.2215 21.048ZM36.7753 20.712V15.276H33.5113L33.4393 16.836C33.4233 17.276 33.3953 17.716 33.3553 18.156C33.3153 18.588 33.2513 18.988 33.1633 19.356C33.0753 19.716 32.9513 20.008 32.7913 20.232C32.6393 20.456 32.4393 20.58 32.1913 20.604L31.5913 20.472C31.8473 20.488 32.0553 20.396 32.2153 20.196C32.3753 19.988 32.4993 19.708 32.5873 19.356C32.6753 19.004 32.7393 18.608 32.7793 18.168C32.8273 17.72 32.8633 17.264 32.8873 16.8L32.9713 14.736H37.3753V20.712H36.7753ZM31.3153 22.56V20.472H38.3833V22.56H37.8193V21H31.8913V22.56H31.3153Z" fill="#3D6B8C"/>
<path d="M4.43663 21V14.736H5.03663V17.592H9.28463V14.736H9.88463V21H9.28463V18.12H5.03663V21H4.43663ZM16.3877 21V19.572L16.3637 19.356V17.004C16.3637 16.42 16.2037 15.976 15.8837 15.672C15.5717 15.368 15.1117 15.216 14.5037 15.216C14.0717 15.216 13.6677 15.292 13.2917 15.444C12.9237 15.588 12.6077 15.776 12.3437 16.008L12.0437 15.576C12.3557 15.296 12.7317 15.08 13.1717 14.928C13.6117 14.768 14.0717 14.688 14.5517 14.688C15.3277 14.688 15.9237 14.884 16.3397 15.276C16.7557 15.668 16.9637 16.252 16.9637 17.028V21H16.3877ZM14.1317 21.048C13.6677 21.048 13.2637 20.976 12.9197 20.832C12.5837 20.68 12.3237 20.468 12.1397 20.196C11.9637 19.924 11.8757 19.612 11.8757 19.26C11.8757 18.94 11.9477 18.652 12.0917 18.396C12.2437 18.132 12.4917 17.92 12.8357 17.76C13.1797 17.592 13.6397 17.508 14.2157 17.508H16.5197V17.976H14.2277C13.5797 17.976 13.1237 18.096 12.8597 18.336C12.6037 18.576 12.4757 18.876 12.4757 19.236C12.4757 19.636 12.6277 19.956 12.9317 20.196C13.2357 20.436 13.6637 20.556 14.2157 20.556C14.7437 20.556 15.1877 20.436 15.5477 20.196C15.9157 19.956 16.1877 19.608 16.3637 19.152L16.5317 19.56C16.3637 20.016 16.0757 20.38 15.6677 20.652C15.2677 20.916 14.7557 21.048 14.1317 21.048ZM20.7971 21.06C20.3651 21.06 19.9291 20.992 19.4891 20.856C19.0491 20.72 18.6611 20.512 18.3251 20.232L18.5531 19.788C18.8571 20.044 19.2091 20.236 19.6091 20.364C20.0091 20.484 20.4091 20.54 20.8091 20.532C21.2171 20.532 21.5731 20.472 21.8771 20.352C22.1891 20.232 22.4291 20.068 22.5971 19.86C22.7651 19.652 22.8491 19.42 22.8491 19.164C22.8491 18.788 22.6811 18.496 22.3451 18.288C22.0091 18.08 21.5491 17.976 20.9651 17.976H19.9571V17.52H20.9411C21.2771 17.52 21.5731 17.476 21.8291 17.388C22.0931 17.3 22.2971 17.172 22.4411 17.004C22.5931 16.828 22.6691 16.624 22.6691 16.392C22.6691 16.136 22.5811 15.92 22.4051 15.744C22.2371 15.56 22.0051 15.424 21.7091 15.336C21.4211 15.248 21.0971 15.204 20.7371 15.204C20.4251 15.212 20.1011 15.26 19.7651 15.348C19.4371 15.436 19.1131 15.568 18.7931 15.744L18.6011 15.264C18.9531 15.072 19.3091 14.928 19.6691 14.832C20.0291 14.736 20.3931 14.684 20.7611 14.676C21.2251 14.668 21.6491 14.732 22.0331 14.868C22.4171 14.996 22.7211 15.184 22.9451 15.432C23.1691 15.672 23.2811 15.964 23.2811 16.308C23.2811 16.62 23.1851 16.892 22.9931 17.124C22.8091 17.348 22.5531 17.524 22.2251 17.652C21.9051 17.78 21.5451 17.844 21.1451 17.844L21.1931 17.652C21.9131 17.652 22.4691 17.792 22.8611 18.072C23.2611 18.352 23.4611 18.728 23.4611 19.2C23.4611 19.576 23.3411 19.904 23.1011 20.184C22.8611 20.464 22.5371 20.68 22.1291 20.832C21.7291 20.984 21.2851 21.06 20.7971 21.06ZM29.4775 21V19.572L29.4535 19.356V17.004C29.4535 16.42 29.2935 15.976 28.9735 15.672C28.6615 15.368 28.2015 15.216 27.5935 15.216C27.1615 15.216 26.7575 15.292 26.3815 15.444C26.0135 15.588 25.6975 15.776 25.4335 16.008L25.1335 15.576C25.4455 15.296 25.8215 15.08 26.2615 14.928C26.7015 14.768 27.1615 14.688 27.6415 14.688C28.4175 14.688 29.0135 14.884 29.4295 15.276C29.8455 15.668 30.0535 16.252 30.0535 17.028V21H29.4775ZM27.2215 21.048C26.7575 21.048 26.3535 20.976 26.0095 20.832C25.6735 20.68 25.4135 20.468 25.2295 20.196C25.0535 19.924 24.9655 19.612 24.9655 19.26C24.9655 18.94 25.0375 18.652 25.1815 18.396C25.3335 18.132 25.5815 17.92 25.9255 17.76C26.2695 17.592 26.7295 17.508 27.3055 17.508H29.6095V17.976H27.3175C26.6695 17.976 26.2135 18.096 25.9495 18.336C25.6935 18.576 25.5655 18.876 25.5655 19.236C25.5655 19.636 25.7175 19.956 26.0215 20.196C26.3255 20.436 26.7535 20.556 27.3055 20.556C27.8335 20.556 28.2775 20.436 28.6375 20.196C29.0055 19.956 29.2775 19.608 29.4535 19.152L29.6215 19.56C29.4535 20.016 29.1655 20.38 28.7575 20.652C28.3575 20.916 27.8455 21.048 27.2215 21.048ZM36.7753 20.712V15.276H33.5113L33.4393 16.836C33.4233 17.276 33.3953 17.716 33.3553 18.156C33.3153 18.588 33.2513 18.988 33.1633 19.356C33.0753 19.716 32.9513 20.008 32.7913 20.232C32.6393 20.456 32.4393 20.58 32.1913 20.604L31.5913 20.472C31.8473 20.488 32.0553 20.396 32.2153 20.196C32.3753 19.988 32.4993 19.708 32.5873 19.356C32.6753 19.004 32.7393 18.608 32.7793 18.168C32.8273 17.72 32.8633 17.264 32.8873 16.8L32.9713 14.736H37.3753V20.712H36.7753ZM31.3153 22.56V20.472H38.3833V22.56H37.8193V21H31.8913V22.56H31.3153Z" fill="black" fill-opacity="0.2"/>
<path d="M0.646446 3.64645C0.451183 3.84171 0.451183 4.15829 0.646446 4.35355L3.82843 7.53553C4.02369 7.7308 4.34027 7.7308 4.53553 7.53553C4.7308 7.34027 4.7308 7.02369 4.53553 6.82843L1.70711 4L4.53553 1.17157C4.7308 0.976311 4.7308 0.659728 4.53553 0.464466C4.34027 0.269204 4.02369 0.269204 3.82843 0.464466L0.646446 3.64645ZM41 3.5L1 3.5V4.5L41 4.5V3.5Z" fill="#3D6B8C"/>
<path d="M0.646446 3.64645C0.451183 3.84171 0.451183 4.15829 0.646446 4.35355L3.82843 7.53553C4.02369 7.7308 4.34027 7.7308 4.53553 7.53553C4.7308 7.34027 4.7308 7.02369 4.53553 6.82843L1.70711 4L4.53553 1.17157C4.7308 0.976311 4.7308 0.659728 4.53553 0.464466C4.34027 0.269204 4.02369 0.269204 3.82843 0.464466L0.646446 3.64645ZM41 3.5L1 3.5V4.5L41 4.5V3.5Z" fill="black" fill-opacity="0.2"/>
</svg>
