<svg width="44" height="44" viewBox="0 0 44 44" fill="none" xmlns="http://www.w3.org/2000/svg">
<rect width="44" height="44" rx="12" fill="#3D6B8C"/>
<rect width="44" height="44" rx="12" fill="black" fill-opacity="0.2"/>
<path d="M18.066 15.8645C17.8802 15.8375 17.6907 15.8749 17.529 15.9705H17.515C17.14 16.1905 16.802 16.4675 16.514 16.7935C16.274 17.0705 16.144 17.3505 16.11 17.6205C16.09 17.7805 16.104 17.9425 16.151 18.0955L16.169 18.1055C16.439 18.8985 16.791 19.6615 17.221 20.3795C17.7755 21.388 18.4578 22.3207 19.251 23.1545L19.275 23.1885L19.313 23.2165L19.336 23.2435L19.364 23.2675C20.2008 24.0632 21.1357 24.7487 22.146 25.3075C23.301 25.9365 24.002 26.2335 24.423 26.3575V26.3635C24.546 26.4015 24.658 26.4185 24.771 26.4185C25.1296 26.392 25.4689 26.2463 25.735 26.0045C26.06 25.7165 26.335 25.3775 26.549 25.0005V24.9935C26.75 24.6135 26.682 24.2555 26.392 24.0125C25.8095 23.5036 25.1797 23.0515 24.511 22.6625C24.063 22.4195 23.608 22.5665 23.424 22.8125L23.031 23.3085C22.829 23.5545 22.463 23.5205 22.463 23.5205L22.453 23.5265C19.722 22.8295 18.993 20.0645 18.993 20.0645C18.993 20.0645 18.959 19.6885 19.212 19.4965L19.704 19.1005C19.94 18.9085 20.104 18.4545 19.851 18.0065C19.4647 17.3373 19.0135 16.7076 18.504 16.1265C18.3929 15.9898 18.2371 15.8966 18.064 15.8635L18.066 15.8645ZM22.681 14.6625C22.5484 14.6625 22.4213 14.7152 22.3275 14.809C22.2337 14.9028 22.181 15.0299 22.181 15.1625C22.181 15.2951 22.2337 15.4223 22.3275 15.5161C22.4213 15.6099 22.5484 15.6625 22.681 15.6625C23.945 15.6625 24.995 16.0755 25.826 16.8675C26.253 17.3005 26.586 17.8135 26.804 18.3755C27.023 18.9385 27.123 19.5395 27.097 20.1415C27.0915 20.2741 27.1388 20.4035 27.2286 20.5012C27.3185 20.5989 27.4434 20.657 27.576 20.6625C27.7087 20.6681 27.838 20.6208 27.9357 20.5309C28.0335 20.4411 28.0915 20.3161 28.097 20.1835C28.1281 19.443 28.0051 18.7041 27.736 18.0135C27.4658 17.3197 27.056 16.6887 26.532 16.1595L26.522 16.1495C25.491 15.1645 24.187 14.6625 22.681 14.6625Z" fill="white"/>
<path d="M22.6461 16.3065C22.5135 16.3065 22.3863 16.3592 22.2926 16.4529C22.1988 16.5467 22.1461 16.6739 22.1461 16.8065C22.1461 16.9391 22.1988 17.0663 22.2926 17.16C22.3863 17.2538 22.5135 17.3065 22.6461 17.3065H22.6631C23.5751 17.3715 24.2391 17.6755 24.7041 18.1745C25.1811 18.6885 25.4281 19.3275 25.4091 20.1175C25.4061 20.2501 25.4558 20.3785 25.5474 20.4744C25.639 20.5703 25.765 20.6259 25.8976 20.629C26.0302 20.632 26.1586 20.5823 26.2545 20.4907C26.3505 20.3991 26.4061 20.2731 26.4091 20.1405C26.4331 19.1035 26.0991 18.2085 25.4371 17.4945V17.4925C24.7601 16.7665 23.8311 16.3825 22.7131 16.3075L22.6961 16.3055L22.6461 16.3065Z" fill="white"/>
<path d="M22.6271 17.9815C22.5602 17.9756 22.4927 17.9832 22.4288 18.004C22.365 18.0247 22.3059 18.0581 22.2552 18.1021C22.2045 18.1462 22.1632 18.2 22.1337 18.2604C22.1043 18.3208 22.0873 18.3865 22.0838 18.4535C22.0803 18.5206 22.0904 18.5877 22.1134 18.6508C22.1364 18.7139 22.1719 18.7718 22.2177 18.8209C22.2636 18.8699 22.3189 18.9093 22.3803 18.9365C22.4417 18.9638 22.5079 18.9784 22.5751 18.9795C22.9931 19.0015 23.2601 19.1275 23.4281 19.2965C23.5971 19.4665 23.7231 19.7395 23.7461 20.1665C23.7473 20.2336 23.7621 20.2997 23.7894 20.361C23.8168 20.4223 23.8562 20.4775 23.9053 20.5232C23.9545 20.5689 24.0123 20.6043 24.0754 20.6272C24.1384 20.6501 24.2055 20.66 24.2725 20.6565C24.3395 20.6529 24.4051 20.6359 24.4654 20.6065C24.5257 20.577 24.5795 20.5357 24.6235 20.485C24.6675 20.4344 24.7009 20.3754 24.7216 20.3115C24.7423 20.2477 24.7499 20.1803 24.7441 20.1135C24.7121 19.5135 24.5241 18.9835 24.1391 18.5935C23.7521 18.2035 23.2251 18.0135 22.6271 17.9815Z" fill="white"/>
<path fill-rule="evenodd" clip-rule="evenodd" d="M17.168 12.0466C20.3501 11.3353 23.6499 11.3353 26.832 12.0466L27.171 12.1216C28.1012 12.3295 28.9555 12.7913 29.6391 13.4556C30.3226 14.1199 30.8086 14.9607 31.043 15.8846C31.8507 19.0675 31.8507 22.4017 31.043 25.5846C30.8086 26.5085 30.3226 27.3493 29.6391 28.0136C28.9555 28.6779 28.1012 29.1396 27.171 29.3476L26.831 29.4226C24.838 29.8683 22.793 30.0362 20.754 29.9216L18.101 32.2956C18.001 32.3851 17.8788 32.4462 17.7471 32.4724C17.6154 32.4986 17.4791 32.489 17.3525 32.4445C17.2258 32.4001 17.1133 32.3225 17.0269 32.2198C16.9404 32.117 16.8832 31.993 16.861 31.8606L16.422 29.2386C15.5802 28.9767 14.8196 28.5032 14.213 27.8635C13.6063 27.2237 13.1739 26.4391 12.957 25.5846C12.1493 22.4017 12.1493 19.0675 12.957 15.8846C13.1914 14.9607 13.6774 14.1199 14.3609 13.4556C15.0445 12.7913 15.8988 12.3295 16.829 12.1216L17.168 12.0466ZM26.505 13.5096C23.5383 12.8464 20.4617 12.8464 17.495 13.5096L17.155 13.5856C16.4957 13.7333 15.8903 14.0608 15.4059 14.5317C14.9215 15.0027 14.5771 15.5987 14.411 16.2536C13.6647 19.1943 13.6647 22.2749 14.411 25.2156C14.5772 25.8706 14.9217 26.4667 15.4063 26.9377C15.8909 27.4087 16.4965 27.7361 17.156 27.8836L17.246 27.9036C17.3916 27.9362 17.5242 28.0114 17.6268 28.1197C17.7294 28.228 17.7974 28.3645 17.822 28.5116L18.116 30.2696L19.988 28.5946C20.0628 28.5275 20.1502 28.4761 20.2452 28.4435C20.3402 28.4108 20.4408 28.3976 20.541 28.4046C22.5401 28.5464 24.5491 28.3965 26.505 27.9596L26.844 27.8836C27.5035 27.7361 28.1091 27.4087 28.5937 26.9377C29.0783 26.4667 29.4228 25.8706 29.589 25.2156C30.335 22.2756 30.335 19.1946 29.589 16.2536C29.4228 15.5986 29.0783 15.0025 28.5937 14.5315C28.1091 14.0605 27.5035 13.7331 26.844 13.5856L26.505 13.5096Z" fill="white"/>
</svg>
