<svg width="44" height="44" viewBox="0 0 44 44" fill="none" xmlns="http://www.w3.org/2000/svg">
<rect width="44" height="44" rx="12" fill="#3D6B8C"/>
<rect width="44" height="44" rx="12" fill="black" fill-opacity="0.2"/>
<path d="M29.5522 12.997C29.3115 13.0145 29.0751 13.071 28.8525 13.1643H28.8495C28.6357 13.249 27.6195 13.6765 26.0745 14.3245L20.538 16.6563C16.5652 18.3288 12.66 19.9758 12.66 19.9758L12.7065 19.9578C12.7065 19.9578 12.4372 20.0463 12.156 20.239C11.9822 20.3496 11.8327 20.4943 11.7165 20.6643C11.5785 20.8668 11.4675 21.1765 11.5087 21.4968C11.5762 22.0383 11.9272 22.363 12.1792 22.5423C12.4342 22.7238 12.6772 22.8085 12.6772 22.8085H12.6832L16.3455 24.0423C16.5097 24.5695 17.4615 27.6985 17.6902 28.4193C17.8252 28.8498 17.9565 29.119 18.1207 29.3245C18.2002 29.4295 18.2932 29.5173 18.405 29.5878C18.4631 29.6216 18.525 29.6483 18.5895 29.6673L18.552 29.6583C18.5632 29.6613 18.5722 29.6703 18.5805 29.6733C18.6105 29.6815 18.6307 29.6845 18.669 29.6905C19.2487 29.866 19.7145 29.506 19.7145 29.506L19.7407 29.485L21.903 27.5163L25.527 30.2965L25.6095 30.3318C26.3647 30.6633 27.1297 30.4788 27.534 30.1533C27.9412 29.8255 28.0995 29.4063 28.0995 29.4063L28.1257 29.3388L30.9262 14.992C31.0057 14.638 31.026 14.3065 30.9382 13.9848C30.8477 13.6592 30.6388 13.3791 30.3525 13.1995C30.112 13.0534 29.8332 12.9828 29.5522 12.997ZM29.4765 14.5345C29.4735 14.5818 29.4825 14.5765 29.4615 14.6673V14.6755L26.6872 28.873C26.6752 28.8933 26.655 28.9375 26.5995 28.9818C26.541 29.0283 26.4945 29.0575 26.2507 28.9608L21.8182 25.5625L19.1407 28.003L19.7032 24.4105L26.9452 17.6605C27.2437 17.383 27.144 17.3245 27.144 17.3245C27.165 16.984 26.6932 17.2248 26.6932 17.2248L17.5612 22.882L17.5582 22.867L13.1812 21.3933V21.3903L13.17 21.388C13.1776 21.3855 13.1852 21.3825 13.1925 21.379L13.2165 21.367L13.2397 21.3588C13.2397 21.3588 17.148 19.7118 21.1207 18.0393C23.1097 17.2015 25.1137 16.3578 26.655 15.7068C27.569 15.322 28.484 14.9395 29.4 14.5593C29.4615 14.5353 29.4322 14.5345 29.4765 14.5345Z" fill="white"/>
</svg>
