<svg width="20" height="20" viewBox="0 0 20 20" fill="none" xmlns="http://www.w3.org/2000/svg">
<path d="M3.33301 6.66667H16.6663M13.333 2.5V4.16667M6.66634 2.5V4.16667M3.33301 3.33333H16.6663V15C16.6663 15.442 16.4907 15.866 16.1782 16.1785C15.8656 16.4911 15.4417 16.6667 14.9997 16.6667H4.99967C4.55765 16.6667 4.13372 16.4911 3.82116 16.1785C3.5086 15.866 3.33301 15.442 3.33301 15V3.33333Z" stroke="#3D6B8C" stroke-linecap="round" stroke-linejoin="round"/>
<path d="M3.33301 6.66667H16.6663M13.333 2.5V4.16667M6.66634 2.5V4.16667M3.33301 3.33333H16.6663V15C16.6663 15.442 16.4907 15.866 16.1782 16.1785C15.8656 16.4911 15.4417 16.6667 14.9997 16.6667H4.99967C4.55765 16.6667 4.13372 16.4911 3.82116 16.1785C3.5086 15.866 3.33301 15.442 3.33301 15V3.33333Z" stroke="black" stroke-opacity="0.2" stroke-linecap="round" stroke-linejoin="round"/>
</svg>
