<svg width="20" height="20" viewBox="0 0 20 20" fill="none" xmlns="http://www.w3.org/2000/svg">
<path d="M15.6921 1.87503C14.6293 2.2396 13.707 2.92713 13.0541 3.84152C12.4012 4.75591 12.0503 5.85146 12.0505 6.97503V9.60003C12.0513 9.99317 12.2079 10.3699 12.4859 10.6479C12.7639 10.9259 13.1407 11.0825 13.5338 11.0834H15.7838V17.8667C15.7838 17.9772 15.8277 18.0832 15.9058 18.1613C15.984 18.2395 16.09 18.2834 16.2005 18.2834C16.3104 18.2816 16.4154 18.2372 16.4932 18.1594C16.571 18.0817 16.6154 17.9767 16.6171 17.8667V2.13337C16.6154 2.02339 16.571 1.91841 16.4932 1.84064C16.4154 1.76287 16.3104 1.71842 16.2005 1.7167C16.1521 1.71616 16.104 1.72463 16.0588 1.7417L15.6921 1.87503ZM13.5338 10.25C13.3615 10.2498 13.1963 10.1813 13.0744 10.0594C12.9526 9.93756 12.884 9.77236 12.8838 9.60003V6.97503C12.8844 6.0573 13.1613 5.16101 13.6786 4.40295C14.1958 3.64488 14.9294 3.06018 15.7838 2.72503V10.25H13.5338ZM9.53379 1.72503C9.42328 1.72503 9.3173 1.76893 9.23916 1.84707C9.16102 1.92521 9.11712 2.03119 9.11712 2.1417V6.2917H7.08379V2.1417C7.08379 2.03119 7.03989 1.92521 6.96175 1.84707C6.88361 1.76893 6.77763 1.72503 6.66712 1.72503C6.55662 1.72503 6.45063 1.76893 6.37249 1.84707C6.29435 1.92521 6.25046 2.03119 6.25046 2.1417V6.2917H4.21712V2.1417C4.21712 2.03119 4.17322 1.92521 4.09508 1.84707C4.01694 1.76893 3.91096 1.72503 3.80046 1.72503C3.68995 1.72503 3.58397 1.76893 3.50583 1.84707C3.42769 1.92521 3.38379 2.03119 3.38379 2.1417V7.5417C3.38533 8.09376 3.60532 8.62277 3.99568 9.01314C4.38605 9.40351 4.91506 9.62349 5.46712 9.62503H6.25046V17.8667C6.25217 17.9767 6.29663 18.0817 6.3744 18.1594C6.45217 18.2372 6.55715 18.2816 6.66712 18.2834C6.77763 18.2834 6.88361 18.2395 6.96175 18.1613C7.03989 18.0832 7.08379 17.9772 7.08379 17.8667V9.62503H7.86712C8.41966 9.62503 8.94956 9.40554 9.34026 9.01484C9.73096 8.62414 9.95046 8.09423 9.95046 7.5417V2.1417C9.95046 2.03119 9.90656 1.92521 9.82842 1.84707C9.75028 1.76893 9.6443 1.72503 9.53379 1.72503ZM9.11712 7.5417C9.11712 7.87322 8.98543 8.19116 8.75101 8.42558C8.51659 8.66 8.19864 8.7917 7.86712 8.7917H5.46712C5.13634 8.7893 4.81979 8.65683 4.58589 8.42293C4.35199 8.18903 4.21952 7.87248 4.21712 7.5417V7.12503H9.11712V7.5417Z" fill="#3D6B8C"/>
<path d="M15.6921 1.87503C14.6293 2.2396 13.707 2.92713 13.0541 3.84152C12.4012 4.75591 12.0503 5.85146 12.0505 6.97503V9.60003C12.0513 9.99317 12.2079 10.3699 12.4859 10.6479C12.7639 10.9259 13.1407 11.0825 13.5338 11.0834H15.7838V17.8667C15.7838 17.9772 15.8277 18.0832 15.9058 18.1613C15.984 18.2395 16.09 18.2834 16.2005 18.2834C16.3104 18.2816 16.4154 18.2372 16.4932 18.1594C16.571 18.0817 16.6154 17.9767 16.6171 17.8667V2.13337C16.6154 2.02339 16.571 1.91841 16.4932 1.84064C16.4154 1.76287 16.3104 1.71842 16.2005 1.7167C16.1521 1.71616 16.104 1.72463 16.0588 1.7417L15.6921 1.87503ZM13.5338 10.25C13.3615 10.2498 13.1963 10.1813 13.0744 10.0594C12.9526 9.93756 12.884 9.77236 12.8838 9.60003V6.97503C12.8844 6.0573 13.1613 5.16101 13.6786 4.40295C14.1958 3.64488 14.9294 3.06018 15.7838 2.72503V10.25H13.5338ZM9.53379 1.72503C9.42328 1.72503 9.3173 1.76893 9.23916 1.84707C9.16102 1.92521 9.11712 2.03119 9.11712 2.1417V6.2917H7.08379V2.1417C7.08379 2.03119 7.03989 1.92521 6.96175 1.84707C6.88361 1.76893 6.77763 1.72503 6.66712 1.72503C6.55662 1.72503 6.45063 1.76893 6.37249 1.84707C6.29435 1.92521 6.25046 2.03119 6.25046 2.1417V6.2917H4.21712V2.1417C4.21712 2.03119 4.17322 1.92521 4.09508 1.84707C4.01694 1.76893 3.91096 1.72503 3.80046 1.72503C3.68995 1.72503 3.58397 1.76893 3.50583 1.84707C3.42769 1.92521 3.38379 2.03119 3.38379 2.1417V7.5417C3.38533 8.09376 3.60532 8.62277 3.99568 9.01314C4.38605 9.40351 4.91506 9.62349 5.46712 9.62503H6.25046V17.8667C6.25217 17.9767 6.29663 18.0817 6.3744 18.1594C6.45217 18.2372 6.55715 18.2816 6.66712 18.2834C6.77763 18.2834 6.88361 18.2395 6.96175 18.1613C7.03989 18.0832 7.08379 17.9772 7.08379 17.8667V9.62503H7.86712C8.41966 9.62503 8.94956 9.40554 9.34026 9.01484C9.73096 8.62414 9.95046 8.09423 9.95046 7.5417V2.1417C9.95046 2.03119 9.90656 1.92521 9.82842 1.84707C9.75028 1.76893 9.6443 1.72503 9.53379 1.72503ZM9.11712 7.5417C9.11712 7.87322 8.98543 8.19116 8.75101 8.42558C8.51659 8.66 8.19864 8.7917 7.86712 8.7917H5.46712C5.13634 8.7893 4.81979 8.65683 4.58589 8.42293C4.35199 8.18903 4.21952 7.87248 4.21712 7.5417V7.12503H9.11712V7.5417Z" fill="black" fill-opacity="0.2"/>
</svg>
