<svg width="20" height="20" viewBox="0 0 20 20" fill="none" xmlns="http://www.w3.org/2000/svg">
<circle cx="10" cy="6.66663" r="2" stroke="#3D6B8C" stroke-linecap="round"/>
<circle cx="10" cy="6.66663" r="2" stroke="black" stroke-opacity="0.2" stroke-linecap="round"/>
<path d="M11.5451 5.45829C11.7017 5.18709 11.9352 4.96842 12.2161 4.82991C12.4969 4.69141 12.8125 4.6393 13.123 4.68017C13.4335 4.72105 13.7249 4.85307 13.9603 5.05955C14.1957 5.26602 14.3647 5.53768 14.4457 5.84016C14.5268 6.14265 14.5163 6.46237 14.4156 6.75891C14.315 7.05544 14.1287 7.31547 13.8802 7.5061C13.6318 7.69674 13.3324 7.80942 13.0199 7.8299C12.7074 7.85038 12.3959 7.77774 12.1247 7.62117" stroke="#3D6B8C"/>
<path d="M11.5451 5.45829C11.7017 5.18709 11.9352 4.96842 12.2161 4.82991C12.4969 4.69141 12.8125 4.6393 13.123 4.68017C13.4335 4.72105 13.7249 4.85307 13.9603 5.05955C14.1957 5.26602 14.3647 5.53768 14.4457 5.84016C14.5268 6.14265 14.5163 6.46237 14.4156 6.75891C14.315 7.05544 14.1287 7.31547 13.8802 7.5061C13.6318 7.69674 13.3324 7.80942 13.0199 7.8299C12.7074 7.85038 12.3959 7.77774 12.1247 7.62117" stroke="black" stroke-opacity="0.2"/>
<path d="M8.45487 5.45829C8.29829 5.18709 8.06481 4.96842 7.78395 4.82991C7.50309 4.69141 7.18747 4.6393 6.87699 4.68017C6.56652 4.72105 6.27514 4.85307 6.03969 5.05955C5.80425 5.26602 5.63533 5.53768 5.55428 5.84016C5.47323 6.14265 5.48369 6.46237 5.58435 6.75891C5.68501 7.05544 5.87135 7.31547 6.11979 7.5061C6.36823 7.69674 6.66762 7.80942 6.9801 7.8299C7.29259 7.85038 7.60413 7.77774 7.87533 7.62117" stroke="#3D6B8C"/>
<path d="M8.45487 5.45829C8.29829 5.18709 8.06481 4.96842 7.78395 4.82991C7.50309 4.69141 7.18747 4.6393 6.87699 4.68017C6.56652 4.72105 6.27514 4.85307 6.03969 5.05955C5.80425 5.26602 5.63533 5.53768 5.55428 5.84016C5.47323 6.14265 5.48369 6.46237 5.58435 6.75891C5.68501 7.05544 5.87135 7.31547 6.11979 7.5061C6.36823 7.69674 6.66762 7.80942 6.9801 7.8299C7.29259 7.85038 7.60413 7.77774 7.87533 7.62117" stroke="black" stroke-opacity="0.2"/>
<path d="M10.0003 10.4166C13.2733 10.4166 14.209 12.9664 14.4766 14.4243C14.5762 14.9675 14.1359 15.4166 13.5837 15.4166H6.41699C5.86471 15.4166 5.42442 14.9675 5.5241 14.4243C5.79162 12.9664 6.72735 10.4166 10.0003 10.4166Z" stroke="#3D6B8C" stroke-linecap="round"/>
<path d="M10.0003 10.4166C13.2733 10.4166 14.209 12.9664 14.4766 14.4243C14.5762 14.9675 14.1359 15.4166 13.5837 15.4166H6.41699C5.86471 15.4166 5.42442 14.9675 5.5241 14.4243C5.79162 12.9664 6.72735 10.4166 10.0003 10.4166Z" stroke="black" stroke-opacity="0.2" stroke-linecap="round"/>
<path d="M16.0338 12.6686L15.5517 12.8012V12.8012L16.0338 12.6686ZM10.906 10.4884L10.5368 10.1513L9.91641 10.8307L10.824 10.9816L10.906 10.4884ZM14.3176 13.75L13.8373 13.889L13.9418 14.25H14.3176V13.75ZM12.9168 10.0834C13.7035 10.0834 14.2646 10.4483 14.6865 10.9754C15.1195 11.5165 15.39 12.2138 15.5517 12.8012L16.5159 12.5359C16.3378 11.8888 16.0217 11.0434 15.4672 10.3506C14.9015 9.6438 14.074 9.08337 12.9168 9.08337V10.0834ZM11.2753 10.8255C11.6793 10.3829 12.203 10.0834 12.9168 10.0834V9.08337C11.8751 9.08337 11.0961 9.53857 10.5368 10.1513L11.2753 10.8255ZM10.824 10.9816C12.6951 11.2927 13.4897 12.6875 13.8373 13.889L14.7979 13.6111C14.4012 12.24 13.4085 10.3975 10.988 9.99515L10.824 10.9816ZM15.1452 13.25H14.3176V14.25H15.1452V13.25ZM15.5517 12.8012C15.5841 12.919 15.5555 13.0208 15.4879 13.1009C15.4167 13.1854 15.296 13.25 15.1452 13.25V14.25C16.0117 14.25 16.7745 13.4759 16.5159 12.5359L15.5517 12.8012Z" fill="#3D6B8C"/>
<path d="M16.0338 12.6686L15.5517 12.8012V12.8012L16.0338 12.6686ZM10.906 10.4884L10.5368 10.1513L9.91641 10.8307L10.824 10.9816L10.906 10.4884ZM14.3176 13.75L13.8373 13.889L13.9418 14.25H14.3176V13.75ZM12.9168 10.0834C13.7035 10.0834 14.2646 10.4483 14.6865 10.9754C15.1195 11.5165 15.39 12.2138 15.5517 12.8012L16.5159 12.5359C16.3378 11.8888 16.0217 11.0434 15.4672 10.3506C14.9015 9.6438 14.074 9.08337 12.9168 9.08337V10.0834ZM11.2753 10.8255C11.6793 10.3829 12.203 10.0834 12.9168 10.0834V9.08337C11.8751 9.08337 11.0961 9.53857 10.5368 10.1513L11.2753 10.8255ZM10.824 10.9816C12.6951 11.2927 13.4897 12.6875 13.8373 13.889L14.7979 13.6111C14.4012 12.24 13.4085 10.3975 10.988 9.99515L10.824 10.9816ZM15.1452 13.25H14.3176V14.25H15.1452V13.25ZM15.5517 12.8012C15.5841 12.919 15.5555 13.0208 15.4879 13.1009C15.4167 13.1854 15.296 13.25 15.1452 13.25V14.25C16.0117 14.25 16.7745 13.4759 16.5159 12.5359L15.5517 12.8012Z" fill="black" fill-opacity="0.2"/>
<path d="M9.09511 10.4885L9.177 10.9817L10.0849 10.831L9.46436 10.1513L9.09511 10.4885ZM3.96737 12.6687L3.48529 12.536L3.96737 12.6687ZM5.68262 13.7502V14.2502H6.05846L6.16292 13.8891L5.68262 13.7502ZM7.08431 10.0835C7.79811 10.0835 8.32183 10.3831 8.72586 10.8256L9.46436 10.1513C8.905 9.53867 8.12604 9.0835 7.08431 9.0835V10.0835ZM4.44945 12.8013C4.61111 12.2139 4.88161 11.5167 5.31468 10.9756C5.73661 10.4484 6.29764 10.0835 7.08431 10.0835V9.0835C5.9272 9.0835 5.09961 9.64392 4.53395 10.3507C3.97942 11.0435 3.66335 11.8889 3.48529 12.536L4.44945 12.8013ZM4.85597 13.2502C4.70509 13.2502 4.58447 13.1856 4.51323 13.1011C4.44568 13.0209 4.41705 12.9191 4.44945 12.8013L3.48529 12.536C3.22662 13.476 3.9894 14.2502 4.85597 14.2502V13.2502ZM5.68262 13.2502H4.85597V14.2502H5.68262V13.2502ZM6.16292 13.8891C6.51061 12.6875 7.30532 11.2925 9.177 10.9817L9.01321 9.99522C6.59206 10.3972 5.59909 12.2399 5.20232 13.6112L6.16292 13.8891Z" fill="#3D6B8C"/>
<path d="M9.09511 10.4885L9.177 10.9817L10.0849 10.831L9.46436 10.1513L9.09511 10.4885ZM3.96737 12.6687L3.48529 12.536L3.96737 12.6687ZM5.68262 13.7502V14.2502H6.05846L6.16292 13.8891L5.68262 13.7502ZM7.08431 10.0835C7.79811 10.0835 8.32183 10.3831 8.72586 10.8256L9.46436 10.1513C8.905 9.53867 8.12604 9.0835 7.08431 9.0835V10.0835ZM4.44945 12.8013C4.61111 12.2139 4.88161 11.5167 5.31468 10.9756C5.73661 10.4484 6.29764 10.0835 7.08431 10.0835V9.0835C5.9272 9.0835 5.09961 9.64392 4.53395 10.3507C3.97942 11.0435 3.66335 11.8889 3.48529 12.536L4.44945 12.8013ZM4.85597 13.2502C4.70509 13.2502 4.58447 13.1856 4.51323 13.1011C4.44568 13.0209 4.41705 12.9191 4.44945 12.8013L3.48529 12.536C3.22662 13.476 3.9894 14.2502 4.85597 14.2502V13.2502ZM5.68262 13.2502H4.85597V14.2502H5.68262V13.2502ZM6.16292 13.8891C6.51061 12.6875 7.30532 11.2925 9.177 10.9817L9.01321 9.99522C6.59206 10.3972 5.59909 12.2399 5.20232 13.6112L6.16292 13.8891Z" fill="black" fill-opacity="0.2"/>
</svg>
