<svg width="80" height="80" viewBox="0 0 80 80" fill="none" xmlns="http://www.w3.org/2000/svg">
<rect width="80" height="80" rx="40" fill="url(#paint0_linear_138_1944)"/>
<path fill-rule="evenodd" clip-rule="evenodd" d="M23.3333 18.3889C23.3333 18.0205 23.4797 17.6673 23.7401 17.4068C24.0006 17.1463 24.3539 17 24.7222 17H55.2778C55.6461 17 55.9994 17.1463 56.2599 17.4068C56.5203 17.6673 56.6667 18.0205 56.6667 18.3889C56.6667 19.156 57.2885 19.7778 58.0556 19.7778H63.6111C63.9795 19.7778 64.3327 19.9241 64.5932 20.1846C64.8537 20.445 65 20.7983 65 21.1667V29.5C65 31.3418 64.2684 33.1081 62.966 34.4105C61.6637 35.7128 59.8973 36.4444 58.0556 36.4444H57.1324C56.2848 36.4444 55.5399 36.9843 55.1903 37.7565C52.9994 42.5951 48.5647 46.2012 43.2125 47.2463C42.191 47.4458 41.3889 48.2996 41.3889 49.3404V53.8889C41.3889 54.9935 42.2843 55.8889 43.3889 55.8889H51.1111C51.4795 55.8889 51.8327 56.0352 52.0932 56.2957C52.3537 56.5561 52.5 56.9094 52.5 57.2778V65.6111C52.5 65.9795 52.3537 66.3327 52.0932 66.5932C51.8327 66.8537 51.4795 67 51.1111 67H28.8889C28.5205 67 28.1673 66.8537 27.9068 66.5932C27.6463 66.3327 27.5 65.9795 27.5 65.6111V57.2778C27.5 56.9094 27.6463 56.5561 27.9068 56.2957C28.1673 56.0352 28.5205 55.8889 28.8889 55.8889H36.6111C37.7157 55.8889 38.6111 54.9935 38.6111 53.8889V49.3403C38.6111 48.2996 37.809 47.4458 36.7875 47.2463C31.4362 46.2011 27.0007 42.595 24.8098 37.7565C24.4601 36.9843 23.7152 36.4444 22.8676 36.4444H21.9444C20.1027 36.4444 18.3363 35.7128 17.034 34.4105C15.7316 33.1081 15 31.3418 15 29.5V21.1667C15 20.7983 15.1463 20.445 15.4068 20.1846C15.6673 19.9241 16.0205 19.7778 16.3889 19.7778H21.9444C22.7115 19.7778 23.3333 19.156 23.3333 18.3889ZM53.8889 30.8889V21.7778C53.8889 20.6732 52.9935 19.7778 51.8889 19.7778H28.1111C27.0065 19.7778 26.1111 20.6732 26.1111 21.7778V30.8889C26.1111 38.5597 32.3292 44.7778 40 44.7778C47.6708 44.7778 53.8889 38.5597 53.8889 30.8889ZM58.6667 22.5556C57.5621 22.5556 56.6667 23.451 56.6667 24.5556V32.2778C56.6667 33.0448 57.2885 33.6667 58.0556 33.6667C59.1606 33.6667 60.2204 33.2277 61.0018 32.4463C61.7832 31.6649 62.2222 30.6051 62.2222 29.5V24.5556C62.2222 23.451 61.3268 22.5556 60.2222 22.5556H58.6667ZM17.7778 24.5556C17.7778 23.451 18.6732 22.5556 19.7778 22.5556H21.3333C22.4379 22.5556 23.3333 23.451 23.3333 24.5556V32.2778C23.3333 33.0448 22.7115 33.6667 21.9444 33.6667C20.8394 33.6667 19.7796 33.2277 18.9982 32.4463C18.2168 31.6649 17.7778 30.6051 17.7778 29.5V24.5556ZM32.2778 58.6667C31.1732 58.6667 30.2778 59.5621 30.2778 60.6667V62.2222C30.2778 63.3268 31.1732 64.2222 32.2778 64.2222H47.7222C48.8268 64.2222 49.7222 63.3268 49.7222 62.2222V60.6667C49.7222 59.5621 48.8268 58.6667 47.7222 58.6667H32.2778Z" fill="#37393A"/>
<defs>
<linearGradient id="paint0_linear_138_1944" x1="83.8" y1="-7.05619" x2="-30.1794" y2="53.205" gradientUnits="userSpaceOnUse">
<stop stop-color="#C49D8A"/>
<stop offset="0.244792" stop-color="#E3CBC7"/>
<stop offset="0.557292" stop-color="#AFC2C8"/>
<stop offset="0.770833" stop-color="#AFC2C8"/>
<stop offset="1" stop-color="#5DB6B9"/>
</linearGradient>
</defs>
</svg>
