<svg width="80" height="80" viewBox="0 0 80 80" fill="none" xmlns="http://www.w3.org/2000/svg">
<rect width="80" height="80" rx="40" fill="url(#paint0_linear_138_1952)"/>
<path d="M37.9347 56.9601C37.8691 57.2235 37.7173 57.4575 37.5034 57.6247C37.2895 57.7919 37.0259 57.8828 36.7544 57.8829C36.6546 57.8826 36.5552 57.8703 36.4583 57.8464L29.9685 56.2239C29.8336 56.1894 29.7054 56.1325 29.5892 56.0556L24.7219 52.8107C24.5887 52.722 24.4744 52.608 24.3853 52.4751C24.2962 52.3422 24.2341 52.193 24.2027 52.0361C24.1392 51.7193 24.2041 51.3903 24.3832 51.1213C24.5623 50.8524 24.8409 50.6656 25.1578 50.6021C25.3146 50.5706 25.4762 50.5704 25.6331 50.6014C25.7901 50.6324 25.9394 50.6939 26.0726 50.7826L30.7635 53.9099L37.0505 55.4816C37.2057 55.5205 37.3517 55.5896 37.4802 55.685C37.6087 55.7804 37.7171 55.9001 37.7993 56.0375C37.8814 56.1748 37.9356 56.327 37.9589 56.4853C37.9821 56.6436 37.9739 56.805 37.9347 56.9601ZM64.8531 37.3691C64.7367 37.7228 64.5513 38.0499 64.3076 38.3316C64.0639 38.6132 63.7668 38.8437 63.4335 39.0098L58.5661 41.4434L47.349 52.6606C47.1206 52.8881 46.8114 53.0158 46.4891 53.0155C46.3892 53.0154 46.2898 53.0031 46.193 52.979L33.2134 49.7341C33.0675 49.6962 32.93 49.6316 32.8078 49.5435L21.5237 41.488L16.5691 39.0098C15.8958 38.673 15.3838 38.0825 15.1457 37.3683C14.9076 36.6541 14.963 35.8745 15.2996 35.2011L20.3393 25.1236C20.6761 24.4503 21.2665 23.9383 21.9807 23.7002C22.695 23.4622 23.4745 23.5175 24.148 23.8541L28.7638 26.162L39.6646 23.0469C39.8833 22.9844 40.1152 22.9844 40.3339 23.0469L51.2347 26.162L55.8506 23.8541C56.524 23.5175 57.3036 23.4622 58.0178 23.7002C58.732 23.9383 59.3225 24.4503 59.6593 25.1236L64.699 35.2011C64.8665 35.5344 64.9664 35.8975 64.9929 36.2696C65.0193 36.6418 64.9718 37.0154 64.8531 37.3691ZM17.6582 36.8337L21.6088 38.8191L27.0197 28.0055L23.0589 26.0302C22.9626 25.9824 22.8513 25.9747 22.7494 26.009C22.6475 26.0432 22.5633 26.1165 22.5154 26.2127L17.4757 36.2901C17.4285 36.3862 17.4212 36.497 17.4554 36.5984C17.4712 36.6494 17.4974 36.6966 17.5323 36.7371C17.5672 36.7776 17.61 36.8105 17.6582 36.8337ZM52.776 43.7858L46.5438 38.7948C42.6905 42.1167 37.7055 42.6075 33.6048 39.9873C33.246 39.7591 32.9431 39.4533 32.7183 39.0924C32.4935 38.7315 32.3527 38.3247 32.3062 37.9021C32.2596 37.4795 32.3086 37.0518 32.4495 36.6507C32.5904 36.2495 32.8195 35.8851 33.1201 35.5844L42.3924 26.5879C42.5273 26.4578 42.6904 26.3607 42.869 26.304L39.9993 25.4826L29.4919 28.476L23.7059 40.0562L34.0287 47.4282L46.1159 50.45L52.776 43.7858ZM56.3616 40.2002L50.604 28.6788H43.737L34.8318 37.3184C34.7923 37.3598 34.7625 37.4095 34.7446 37.4639C34.7267 37.5182 34.7212 37.5759 34.7283 37.6327C34.7346 37.6946 34.7551 37.7543 34.7882 37.8071C34.8212 37.8598 34.866 37.9042 34.919 37.9369C37.6143 39.6587 41.8428 40.1414 45.6251 36.3307C45.8368 36.1182 46.1194 35.9914 46.4189 35.9745C46.7183 35.9577 47.0134 36.052 47.2476 36.2394L54.5121 42.064L56.3616 40.2002ZM62.5188 36.2901L57.4832 26.2127C57.4353 26.1165 57.3511 26.0432 57.2492 26.009C57.1473 25.9747 57.0359 25.9824 56.9396 26.0302L52.989 28.0055L58.3897 38.8191L62.3404 36.8438C62.3885 36.8206 62.4313 36.7877 62.4662 36.7473C62.5011 36.7068 62.5273 36.6596 62.5432 36.6085C62.5615 36.5569 62.5691 36.502 62.5656 36.4473C62.5622 36.3925 62.5476 36.3391 62.5229 36.2901H62.5188Z" fill="#37393A"/>
<defs>
<linearGradient id="paint0_linear_138_1952" x1="83.8" y1="-7.05619" x2="-30.1794" y2="53.205" gradientUnits="userSpaceOnUse">
<stop stop-color="#C49D8A"/>
<stop offset="0.244792" stop-color="#E3CBC7"/>
<stop offset="0.557292" stop-color="#AFC2C8"/>
<stop offset="0.770833" stop-color="#AFC2C8"/>
<stop offset="1" stop-color="#5DB6B9"/>
</linearGradient>
</defs>
</svg>
