<svg width="30" height="30" viewBox="0 0 30 30" fill="none" xmlns="http://www.w3.org/2000/svg">
<path d="M11.25 26.25H18.75" stroke="#3D6B8C" stroke-linecap="round"/>
<path d="M15 26.25V20" stroke="#3D6B8C" stroke-linecap="round"/>
<path d="M6.75 11.6071C6.75 11.3154 6.7504 11.127 6.76224 10.9837C6.7736 10.8463 6.79286 10.7955 6.80578 10.7705C6.85336 10.6784 6.9284 10.6034 7.02051 10.5558C7.0455 10.5429 7.09633 10.5236 7.2337 10.5122C7.37701 10.5004 7.56539 10.5 7.85714 10.5H22.1429C22.4346 10.5 22.623 10.5004 22.7663 10.5122C22.9037 10.5236 22.9545 10.5429 22.9795 10.5558C23.0716 10.6034 23.1466 10.6784 23.1942 10.7705C23.2071 10.7955 23.2264 10.8463 23.2378 10.9837C23.2496 11.127 23.25 11.3154 23.25 11.6071V12.5C23.25 13.7868 23.2498 14.729 23.2029 15.4778C23.1563 16.2226 23.0649 16.7425 22.8975 17.1874C22.3396 18.6697 21.1697 19.8396 19.6874 20.3975C19.2425 20.5649 18.7226 20.6563 17.9778 20.7029C17.229 20.7498 16.2868 20.75 15 20.75C13.7132 20.75 12.771 20.7498 12.0222 20.7029C11.2774 20.6563 10.7575 20.5649 10.3126 20.3975C8.83029 19.8396 7.66043 18.6697 7.10252 17.1874C6.93508 16.7425 6.84371 16.2226 6.79709 15.4778C6.75023 14.729 6.75 13.7868 6.75 12.5V11.6071Z" stroke="#3D6B8C" stroke-linecap="round"/>
<path d="M14.5192 14.8626C14.4434 15.1282 14.5971 15.4049 14.8626 15.4808C15.1282 15.5566 15.4049 15.4029 15.4808 15.1374L14.5192 14.8626ZM17.2305 7.1932L17.7113 7.33056L17.2305 7.1932ZM18.4108 5.88569L18.5965 6.34993L18.4108 5.88569ZM17.5845 6.32626L17.2133 5.99122L17.2133 5.99122L17.5845 6.32626ZM15.4808 15.1374L17.7113 7.33056L16.7498 7.05584L14.5192 14.8626L15.4808 15.1374ZM18.5965 6.34993L23.9357 4.21424L23.5643 3.28576L18.2251 5.42145L18.5965 6.34993ZM17.7113 7.33056C17.8571 6.82018 17.8961 6.7272 17.9556 6.66129L17.2133 5.99122C16.9619 6.26979 16.8686 6.63994 16.7498 7.05584L17.7113 7.33056ZM18.2251 5.42145C17.8235 5.58209 17.4648 5.71266 17.2133 5.99122L17.9556 6.66129C18.0151 6.59538 18.1036 6.54706 18.5965 6.34993L18.2251 5.42145Z" fill="#3D6B8C"/>
</svg>
