<svg width="80" height="80" viewBox="0 0 80 80" fill="none" xmlns="http://www.w3.org/2000/svg">
<rect width="80" height="80" rx="40" fill="url(#paint0_linear_138_1946)"/>
<path d="M40.9978 13.3225C40.7074 13.1128 40.3582 13 40 13C39.6418 13 39.2926 13.1128 39.0022 13.3225C37.5407 14.3772 34.2563 16.3046 30.1468 17.9616C26.0328 19.6208 21.2278 20.955 16.7047 20.955C16.2526 20.955 15.819 21.1346 15.4993 21.4543C15.1796 21.774 15 22.2076 15 22.6597V40.2795C15 47.1597 18.8708 53.5557 23.7212 58.3493C28.5694 63.1384 34.695 66.6228 39.7068 67.4956L40 67.5456L40.2909 67.4956C45.305 66.6205 51.4283 63.1384 56.2765 58.3493C61.1292 53.5557 65 47.1597 65 40.2795V22.6597C65 22.2076 64.8204 21.774 64.5007 21.4543C64.181 21.1346 63.7474 20.955 63.2953 20.955C58.7722 20.955 53.9695 19.6208 49.8554 17.9616C45.7437 16.3023 42.4593 14.3749 40.9978 13.3225ZM18.4094 40.2795V24.3121C22.9894 24.0303 27.5739 22.6756 31.4219 21.1232C35.0314 19.6685 38.0885 17.9979 40 16.7637C41.9093 17.9979 44.9686 19.6685 48.5803 21.1232C52.4261 22.6756 57.0129 24.0326 61.5906 24.3121V40.2795C61.5906 45.8937 58.388 51.4692 53.8808 55.9218C49.4759 60.2745 44.1049 63.2725 40 64.0817C35.8951 63.2725 30.5219 60.2745 26.1169 55.9218C21.6097 51.4692 18.4094 45.8982 18.4094 40.2795ZM53.1216 31.8401C53.2825 31.6843 53.4112 31.4983 53.5002 31.2928C53.5892 31.0873 53.6368 30.8663 53.6404 30.6423C53.644 30.4184 53.6035 30.1959 53.5211 29.9877C53.4387 29.7794 53.3161 29.5894 53.1603 29.4285C53.0045 29.2676 52.8185 29.139 52.613 29.05C52.4075 28.961 52.1864 28.9133 51.9625 28.9097C51.7386 28.9062 51.5161 28.9467 51.3078 29.0291C51.0996 29.1115 50.9096 29.2341 50.7487 29.3899L34.2836 45.3231L29.2149 40.7182C28.8781 40.4294 28.4419 40.2833 27.9991 40.311C27.5563 40.3387 27.1417 40.5379 26.8434 40.8664C26.5452 41.1948 26.3867 41.6266 26.4017 42.0701C26.4167 42.5135 26.604 42.9336 26.9238 43.2411L33.1744 48.9235C33.4949 49.2149 33.9144 49.3733 34.3476 49.3665C34.7807 49.3598 35.1951 49.1883 35.5064 48.8871L53.1216 31.8401Z" fill="#37393A"/>
<defs>
<linearGradient id="paint0_linear_138_1946" x1="83.8" y1="-7.05619" x2="-30.1794" y2="53.205" gradientUnits="userSpaceOnUse">
<stop stop-color="#C49D8A"/>
<stop offset="0.244792" stop-color="#E3CBC7"/>
<stop offset="0.557292" stop-color="#AFC2C8"/>
<stop offset="0.770833" stop-color="#AFC2C8"/>
<stop offset="1" stop-color="#5DB6B9"/>
</linearGradient>
</defs>
</svg>
