<svg width="80" height="80" viewBox="0 0 80 80" fill="none" xmlns="http://www.w3.org/2000/svg">
<rect width="80" height="80" rx="40" fill="url(#paint0_linear_311_2525)"/>
<mask id="path-2-outside-1_311_2525" maskUnits="userSpaceOnUse" x="14" y="16" width="52" height="48" fill="black">
<rect fill="white" x="14" y="16" width="52" height="48"/>
<path d="M61.8344 57.0039L64.86 52.4657C64.9437 52.3402 64.9917 52.1943 64.999 52.0437C65.0063 51.893 64.9726 51.7432 64.9014 51.6102C64.8302 51.4772 64.7243 51.366 64.5949 51.2885C64.4655 51.2109 64.3174 51.17 64.1666 51.17H60.4162C60.414 49.7055 59.9917 48.2724 59.1994 47.0407C58.4071 45.809 57.2782 44.8304 55.9465 44.221C56.9127 43.5712 57.6595 42.6441 58.0887 41.5617C58.5179 40.4792 58.6093 39.2923 58.351 38.1569C58.0927 37.0215 57.4967 35.9909 56.6415 35.2007C55.7862 34.4105 54.7118 33.8978 53.5596 33.7299C53.4223 32.4036 52.9413 31.1361 52.1641 30.0527C51.3869 28.9693 50.3404 28.1074 49.1281 27.5523C50.1588 26.8683 50.9417 25.8706 51.3609 24.7068C51.7801 23.543 51.8132 22.2752 51.4554 21.0911C51.0976 19.907 50.3679 18.8697 49.3744 18.1328C48.3808 17.396 47.1764 16.9987 45.9394 17C44.7025 17.0013 43.4988 17.401 42.5068 18.1399C41.5148 18.8788 40.7873 19.9177 40.4319 21.1025C40.0765 22.2873 40.1123 23.5551 40.5339 24.718C40.9555 25.8809 41.7404 26.877 42.7725 27.5588C41.7425 28.0304 40.8295 28.724 40.099 29.5899C39.4554 29.4739 38.7961 29.4739 38.1525 29.5901C37.4232 28.7235 36.5107 28.0296 35.4808 27.5583C36.5127 26.8763 37.2975 25.88 37.7189 24.7171C38.1403 23.5541 38.1758 22.2864 37.8203 21.1017C37.4648 19.9169 36.7371 18.8782 35.745 18.1395C34.7529 17.4007 33.5493 17.0011 32.3123 17C31.0754 16.9989 29.871 17.3962 28.8776 18.1332C27.8842 18.8701 27.1546 19.9075 26.7969 21.0915C26.4392 22.2756 26.4724 23.5434 26.8916 24.7071C27.3109 25.8709 28.0939 26.8686 29.1245 27.5525C27.9219 28.1035 26.8824 28.9566 26.1074 30.0286C25.3323 31.1006 24.8479 32.355 24.7015 33.6698C23.4718 33.6841 22.2788 34.0912 21.2968 34.8316C20.3148 35.572 19.5951 36.607 19.243 37.7853C18.8909 38.9637 18.9246 40.2238 19.3394 41.3816C19.7541 42.5394 20.5281 43.5343 21.5484 44.221C20.2166 44.8304 19.0877 45.809 18.2954 47.0407C17.5032 48.2724 17.0809 49.7055 17.0786 51.17H15.8285C15.6784 51.1719 15.5316 51.214 15.4034 51.292C15.2751 51.3699 15.1701 51.4808 15.0993 51.6132C15.0285 51.7455 14.9944 51.8944 15.0007 52.0443C15.007 52.1943 15.0534 52.3398 15.1351 52.4657L18.1607 57.0039L15.1351 61.5421C15.0535 61.6681 15.0072 61.8136 15.0009 61.9635C14.9947 62.1134 15.0287 62.2623 15.0995 62.3946C15.1703 62.5269 15.2753 62.6378 15.4035 62.7157C15.5318 62.7937 15.6785 62.8358 15.8286 62.8378L28.3297 62.8378C28.4666 62.8369 28.6006 62.7994 28.7181 62.7292C28.8479 62.6564 28.957 62.5515 29.0349 62.4247C29.1127 62.2978 29.1569 62.1532 29.1631 62.0044V57.8373H50.8319V62.0044C50.8381 62.1532 50.8823 62.2978 50.9602 62.4247C51.0381 62.5516 51.1471 62.6564 51.277 62.7292C51.3944 62.7994 51.5285 62.8369 51.6653 62.8378H64.1666C64.3166 62.8359 64.4634 62.7937 64.5916 62.7158C64.7198 62.6378 64.8248 62.5269 64.8956 62.3946C64.9664 62.2623 65.0005 62.1134 64.9942 61.9635C64.9879 61.8136 64.9416 61.6681 64.86 61.5421L61.8344 57.0039ZM58.7494 51.17H57.4993V49.5032C57.4983 48.6193 57.1468 47.772 56.5218 47.147C55.8968 46.522 55.0494 46.1705 54.1656 46.1695H49.4774C50.382 45.5872 51.4261 45.258 52.5011 45.2164C53.5761 45.1747 54.6426 45.4221 55.5895 45.9328C56.5364 46.4435 57.329 47.1987 57.8847 48.1198C58.4405 49.041 58.7391 50.0943 58.7494 51.17ZM56.855 39.4265C56.6831 44.8337 48.8437 44.832 48.6727 39.4264C48.8445 34.0197 56.6839 34.0206 56.855 39.4265ZM41.8536 22.7582C42.0253 17.3512 49.8654 17.3525 50.0363 22.7583C49.8646 28.1653 42.0245 28.164 41.8536 22.7582ZM45.9482 28.5181C47.4027 28.5204 48.8066 29.052 49.8978 30.0136C50.9891 30.9752 51.6931 32.3011 51.8784 33.7437C50.7384 33.9303 49.6806 34.4547 48.842 35.2492C48.0034 36.0436 47.4225 37.0714 47.1744 38.1997C46.9264 39.3279 47.0227 40.5046 47.4509 41.5775C47.879 42.6504 48.6193 43.5701 49.576 44.2176C48.5858 44.6733 47.7068 45.3394 47.0003 46.1695H46.7308C46.5843 44.8552 46.1001 43.6012 45.3254 42.5295C44.5506 41.4577 43.5117 40.6047 42.3097 40.0534C43.1334 39.4973 43.7998 38.7383 44.2447 37.8497C44.6895 36.961 44.8978 35.9727 44.8494 34.9801C44.8011 33.9875 44.4977 33.0241 43.9685 32.183C43.4393 31.3418 42.7023 30.6512 41.8285 30.1779C42.939 29.1183 44.4132 28.5243 45.9482 28.5181ZM45.0466 46.1695H33.206C33.4139 44.7478 34.1264 43.4483 35.2135 42.5086C36.3005 41.5689 37.6894 41.0518 39.1263 41.0518C40.5632 41.0518 41.9521 41.5689 43.0391 42.5086C44.1261 43.4483 44.8387 44.7478 45.0466 46.1695ZM39.1263 31.1681C44.5333 31.3398 44.532 39.1798 39.1262 39.3508C33.7193 39.179 33.7205 31.339 39.1263 31.1681ZM28.2162 22.7582C28.388 17.3514 36.2274 17.3523 36.3986 22.7583C36.2267 28.1654 28.3872 28.1638 28.2162 22.7582ZM32.3051 28.5181C33.8427 28.513 35.3217 29.1079 36.4277 30.1761C35.5532 30.6489 34.8155 31.3393 34.2857 32.1805C33.7559 33.0217 33.4519 33.9852 33.4032 34.9782C33.3544 35.9711 33.5625 36.9598 34.0074 37.8488C34.4523 38.7378 35.1189 39.4971 35.9428 40.0534C34.7408 40.6047 33.7019 41.4577 32.9272 42.5295C32.1524 43.6012 31.6683 44.8552 31.5217 46.1695H30.4945C29.788 45.3394 28.909 44.6733 27.9189 44.2176C28.8229 43.6055 29.5349 42.7497 29.9725 41.7495C30.4101 40.7492 30.5552 39.6455 30.3912 38.5661C30.2271 37.4868 29.7606 36.476 29.0456 35.6509C28.3305 34.8259 27.3964 34.2203 26.3513 33.9045C26.5012 32.429 27.1929 31.0616 28.2927 30.0666C29.3924 29.0717 30.8221 28.5199 32.3051 28.5181ZM20.6398 39.4265C20.8117 34.0193 28.6511 34.021 28.8222 39.4266C28.6503 44.8333 20.8109 44.8325 20.6398 39.4265ZM24.7296 45.1864C25.8985 45.1827 27.0424 45.5248 28.0174 46.1695H25.8295C24.9456 46.1705 24.0982 46.522 23.4733 47.147C22.8483 47.772 22.4968 48.6193 22.4958 49.5032V51.17H18.7455C18.7473 49.5836 19.3784 48.0626 20.5002 46.9408C21.6221 45.8191 23.1431 45.1881 24.7296 45.1864ZM17.3859 61.171L19.8556 57.4662C19.9469 57.3293 19.9956 57.1685 19.9956 57.0039C19.9956 56.8394 19.9469 56.6785 19.8556 56.5416L17.3859 52.8368H22.4958C22.4717 53.5839 22.491 54.3316 22.5537 55.0764C22.5082 55.2024 22.4943 55.3376 22.5133 55.4702C22.5323 55.6028 22.5836 55.7287 22.6627 55.8368L26.6633 61.171H17.3859ZM27.4963 59.5047L26.2458 57.8373H27.4963V59.5047ZM25.8295 56.1705C25.3876 56.17 24.9639 55.9942 24.6514 55.6817C24.3389 55.3693 24.1632 54.9456 24.1626 54.5037V49.5032C24.1632 49.0613 24.3389 48.6376 24.6514 48.3251C24.9639 48.0126 25.3876 47.8369 25.8295 47.8364H54.1656C54.6075 47.8369 55.0312 48.0126 55.3437 48.3251C55.6561 48.6376 55.8319 49.0613 55.8324 49.5032V54.5037C55.8319 54.9456 55.6561 55.3693 55.3437 55.6817C55.0312 55.9942 54.6075 56.17 54.1656 56.1705H25.8295ZM52.4988 57.8373H53.7493L52.4988 59.5047V57.8373ZM53.3318 61.171L57.3324 55.8368C57.4115 55.7287 57.4628 55.6028 57.4818 55.4702C57.5008 55.3376 57.4869 55.2023 57.4414 55.0763C57.5046 54.3316 57.524 53.5838 57.4993 52.8368H62.6092L60.1395 56.5416C60.0482 56.6785 59.9994 56.8394 59.9994 57.0039C59.9994 57.1685 60.0482 57.3293 60.1395 57.4662L62.6092 61.171H53.3318Z"/>
</mask>
<path d="M61.8344 57.0039L64.86 52.4657C64.9437 52.3402 64.9917 52.1943 64.999 52.0437C65.0063 51.893 64.9726 51.7432 64.9014 51.6102C64.8302 51.4772 64.7243 51.366 64.5949 51.2885C64.4655 51.2109 64.3174 51.17 64.1666 51.17H60.4162C60.414 49.7055 59.9917 48.2724 59.1994 47.0407C58.4071 45.809 57.2782 44.8304 55.9465 44.221C56.9127 43.5712 57.6595 42.6441 58.0887 41.5617C58.5179 40.4792 58.6093 39.2923 58.351 38.1569C58.0927 37.0215 57.4967 35.9909 56.6415 35.2007C55.7862 34.4105 54.7118 33.8978 53.5596 33.7299C53.4223 32.4036 52.9413 31.1361 52.1641 30.0527C51.3869 28.9693 50.3404 28.1074 49.1281 27.5523C50.1588 26.8683 50.9417 25.8706 51.3609 24.7068C51.7801 23.543 51.8132 22.2752 51.4554 21.0911C51.0976 19.907 50.3679 18.8697 49.3744 18.1328C48.3808 17.396 47.1764 16.9987 45.9394 17C44.7025 17.0013 43.4988 17.401 42.5068 18.1399C41.5148 18.8788 40.7873 19.9177 40.4319 21.1025C40.0765 22.2873 40.1123 23.5551 40.5339 24.718C40.9555 25.8809 41.7404 26.877 42.7725 27.5588C41.7425 28.0304 40.8295 28.724 40.099 29.5899C39.4554 29.4739 38.7961 29.4739 38.1525 29.5901C37.4232 28.7235 36.5107 28.0296 35.4808 27.5583C36.5127 26.8763 37.2975 25.88 37.7189 24.7171C38.1403 23.5541 38.1758 22.2864 37.8203 21.1017C37.4648 19.9169 36.7371 18.8782 35.745 18.1395C34.7529 17.4007 33.5493 17.0011 32.3123 17C31.0754 16.9989 29.871 17.3962 28.8776 18.1332C27.8842 18.8701 27.1546 19.9075 26.7969 21.0915C26.4392 22.2756 26.4724 23.5434 26.8916 24.7071C27.3109 25.8709 28.0939 26.8686 29.1245 27.5525C27.9219 28.1035 26.8824 28.9566 26.1074 30.0286C25.3323 31.1006 24.8479 32.355 24.7015 33.6698C23.4718 33.6841 22.2788 34.0912 21.2968 34.8316C20.3148 35.572 19.5951 36.607 19.243 37.7853C18.8909 38.9637 18.9246 40.2238 19.3394 41.3816C19.7541 42.5394 20.5281 43.5343 21.5484 44.221C20.2166 44.8304 19.0877 45.809 18.2954 47.0407C17.5032 48.2724 17.0809 49.7055 17.0786 51.17H15.8285C15.6784 51.1719 15.5316 51.214 15.4034 51.292C15.2751 51.3699 15.1701 51.4808 15.0993 51.6132C15.0285 51.7455 14.9944 51.8944 15.0007 52.0443C15.007 52.1943 15.0534 52.3398 15.1351 52.4657L18.1607 57.0039L15.1351 61.5421C15.0535 61.6681 15.0072 61.8136 15.0009 61.9635C14.9947 62.1134 15.0287 62.2623 15.0995 62.3946C15.1703 62.5269 15.2753 62.6378 15.4035 62.7157C15.5318 62.7937 15.6785 62.8358 15.8286 62.8378L28.3297 62.8378C28.4666 62.8369 28.6006 62.7994 28.7181 62.7292C28.8479 62.6564 28.957 62.5515 29.0349 62.4247C29.1127 62.2978 29.1569 62.1532 29.1631 62.0044V57.8373H50.8319V62.0044C50.8381 62.1532 50.8823 62.2978 50.9602 62.4247C51.0381 62.5516 51.1471 62.6564 51.277 62.7292C51.3944 62.7994 51.5285 62.8369 51.6653 62.8378H64.1666C64.3166 62.8359 64.4634 62.7937 64.5916 62.7158C64.7198 62.6378 64.8248 62.5269 64.8956 62.3946C64.9664 62.2623 65.0005 62.1134 64.9942 61.9635C64.9879 61.8136 64.9416 61.6681 64.86 61.5421L61.8344 57.0039ZM58.7494 51.17H57.4993V49.5032C57.4983 48.6193 57.1468 47.772 56.5218 47.147C55.8968 46.522 55.0494 46.1705 54.1656 46.1695H49.4774C50.382 45.5872 51.4261 45.258 52.5011 45.2164C53.5761 45.1747 54.6426 45.4221 55.5895 45.9328C56.5364 46.4435 57.329 47.1987 57.8847 48.1198C58.4405 49.041 58.7391 50.0943 58.7494 51.17ZM56.855 39.4265C56.6831 44.8337 48.8437 44.832 48.6727 39.4264C48.8445 34.0197 56.6839 34.0206 56.855 39.4265ZM41.8536 22.7582C42.0253 17.3512 49.8654 17.3525 50.0363 22.7583C49.8646 28.1653 42.0245 28.164 41.8536 22.7582ZM45.9482 28.5181C47.4027 28.5204 48.8066 29.052 49.8978 30.0136C50.9891 30.9752 51.6931 32.3011 51.8784 33.7437C50.7384 33.9303 49.6806 34.4547 48.842 35.2492C48.0034 36.0436 47.4225 37.0714 47.1744 38.1997C46.9264 39.3279 47.0227 40.5046 47.4509 41.5775C47.879 42.6504 48.6193 43.5701 49.576 44.2176C48.5858 44.6733 47.7068 45.3394 47.0003 46.1695H46.7308C46.5843 44.8552 46.1001 43.6012 45.3254 42.5295C44.5506 41.4577 43.5117 40.6047 42.3097 40.0534C43.1334 39.4973 43.7998 38.7383 44.2447 37.8497C44.6895 36.961 44.8978 35.9727 44.8494 34.9801C44.8011 33.9875 44.4977 33.0241 43.9685 32.183C43.4393 31.3418 42.7023 30.6512 41.8285 30.1779C42.939 29.1183 44.4132 28.5243 45.9482 28.5181ZM45.0466 46.1695H33.206C33.4139 44.7478 34.1264 43.4483 35.2135 42.5086C36.3005 41.5689 37.6894 41.0518 39.1263 41.0518C40.5632 41.0518 41.9521 41.5689 43.0391 42.5086C44.1261 43.4483 44.8387 44.7478 45.0466 46.1695ZM39.1263 31.1681C44.5333 31.3398 44.532 39.1798 39.1262 39.3508C33.7193 39.179 33.7205 31.339 39.1263 31.1681ZM28.2162 22.7582C28.388 17.3514 36.2274 17.3523 36.3986 22.7583C36.2267 28.1654 28.3872 28.1638 28.2162 22.7582ZM32.3051 28.5181C33.8427 28.513 35.3217 29.1079 36.4277 30.1761C35.5532 30.6489 34.8155 31.3393 34.2857 32.1805C33.7559 33.0217 33.4519 33.9852 33.4032 34.9782C33.3544 35.9711 33.5625 36.9598 34.0074 37.8488C34.4523 38.7378 35.1189 39.4971 35.9428 40.0534C34.7408 40.6047 33.7019 41.4577 32.9272 42.5295C32.1524 43.6012 31.6683 44.8552 31.5217 46.1695H30.4945C29.788 45.3394 28.909 44.6733 27.9189 44.2176C28.8229 43.6055 29.5349 42.7497 29.9725 41.7495C30.4101 40.7492 30.5552 39.6455 30.3912 38.5661C30.2271 37.4868 29.7606 36.476 29.0456 35.6509C28.3305 34.8259 27.3964 34.2203 26.3513 33.9045C26.5012 32.429 27.1929 31.0616 28.2927 30.0666C29.3924 29.0717 30.8221 28.5199 32.3051 28.5181ZM20.6398 39.4265C20.8117 34.0193 28.6511 34.021 28.8222 39.4266C28.6503 44.8333 20.8109 44.8325 20.6398 39.4265ZM24.7296 45.1864C25.8985 45.1827 27.0424 45.5248 28.0174 46.1695H25.8295C24.9456 46.1705 24.0982 46.522 23.4733 47.147C22.8483 47.772 22.4968 48.6193 22.4958 49.5032V51.17H18.7455C18.7473 49.5836 19.3784 48.0626 20.5002 46.9408C21.6221 45.8191 23.1431 45.1881 24.7296 45.1864ZM17.3859 61.171L19.8556 57.4662C19.9469 57.3293 19.9956 57.1685 19.9956 57.0039C19.9956 56.8394 19.9469 56.6785 19.8556 56.5416L17.3859 52.8368H22.4958C22.4717 53.5839 22.491 54.3316 22.5537 55.0764C22.5082 55.2024 22.4943 55.3376 22.5133 55.4702C22.5323 55.6028 22.5836 55.7287 22.6627 55.8368L26.6633 61.171H17.3859ZM27.4963 59.5047L26.2458 57.8373H27.4963V59.5047ZM25.8295 56.1705C25.3876 56.17 24.9639 55.9942 24.6514 55.6817C24.3389 55.3693 24.1632 54.9456 24.1626 54.5037V49.5032C24.1632 49.0613 24.3389 48.6376 24.6514 48.3251C24.9639 48.0126 25.3876 47.8369 25.8295 47.8364H54.1656C54.6075 47.8369 55.0312 48.0126 55.3437 48.3251C55.6561 48.6376 55.8319 49.0613 55.8324 49.5032V54.5037C55.8319 54.9456 55.6561 55.3693 55.3437 55.6817C55.0312 55.9942 54.6075 56.17 54.1656 56.1705H25.8295ZM52.4988 57.8373H53.7493L52.4988 59.5047V57.8373ZM53.3318 61.171L57.3324 55.8368C57.4115 55.7287 57.4628 55.6028 57.4818 55.4702C57.5008 55.3376 57.4869 55.2023 57.4414 55.0763C57.5046 54.3316 57.524 53.5838 57.4993 52.8368H62.6092L60.1395 56.5416C60.0482 56.6785 59.9994 56.8394 59.9994 57.0039C59.9994 57.1685 60.0482 57.3293 60.1395 57.4662L62.6092 61.171H53.3318Z" fill="#37393A"/>
<path d="M61.8344 57.0039L64.86 52.4657C64.9437 52.3402 64.9917 52.1943 64.999 52.0437C65.0063 51.893 64.9726 51.7432 64.9014 51.6102C64.8302 51.4772 64.7243 51.366 64.5949 51.2885C64.4655 51.2109 64.3174 51.17 64.1666 51.17H60.4162C60.414 49.7055 59.9917 48.2724 59.1994 47.0407C58.4071 45.809 57.2782 44.8304 55.9465 44.221C56.9127 43.5712 57.6595 42.6441 58.0887 41.5617C58.5179 40.4792 58.6093 39.2923 58.351 38.1569C58.0927 37.0215 57.4967 35.9909 56.6415 35.2007C55.7862 34.4105 54.7118 33.8978 53.5596 33.7299C53.4223 32.4036 52.9413 31.1361 52.1641 30.0527C51.3869 28.9693 50.3404 28.1074 49.1281 27.5523C50.1588 26.8683 50.9417 25.8706 51.3609 24.7068C51.7801 23.543 51.8132 22.2752 51.4554 21.0911C51.0976 19.907 50.3679 18.8697 49.3744 18.1328C48.3808 17.396 47.1764 16.9987 45.9394 17C44.7025 17.0013 43.4988 17.401 42.5068 18.1399C41.5148 18.8788 40.7873 19.9177 40.4319 21.1025C40.0765 22.2873 40.1123 23.5551 40.5339 24.718C40.9555 25.8809 41.7404 26.877 42.7725 27.5588C41.7425 28.0304 40.8295 28.724 40.099 29.5899C39.4554 29.4739 38.7961 29.4739 38.1525 29.5901C37.4232 28.7235 36.5107 28.0296 35.4808 27.5583C36.5127 26.8763 37.2975 25.88 37.7189 24.7171C38.1403 23.5541 38.1758 22.2864 37.8203 21.1017C37.4648 19.9169 36.7371 18.8782 35.745 18.1395C34.7529 17.4007 33.5493 17.0011 32.3123 17C31.0754 16.9989 29.871 17.3962 28.8776 18.1332C27.8842 18.8701 27.1546 19.9075 26.7969 21.0915C26.4392 22.2756 26.4724 23.5434 26.8916 24.7071C27.3109 25.8709 28.0939 26.8686 29.1245 27.5525C27.9219 28.1035 26.8824 28.9566 26.1074 30.0286C25.3323 31.1006 24.8479 32.355 24.7015 33.6698C23.4718 33.6841 22.2788 34.0912 21.2968 34.8316C20.3148 35.572 19.5951 36.607 19.243 37.7853C18.8909 38.9637 18.9246 40.2238 19.3394 41.3816C19.7541 42.5394 20.5281 43.5343 21.5484 44.221C20.2166 44.8304 19.0877 45.809 18.2954 47.0407C17.5032 48.2724 17.0809 49.7055 17.0786 51.17H15.8285C15.6784 51.1719 15.5316 51.214 15.4034 51.292C15.2751 51.3699 15.1701 51.4808 15.0993 51.6132C15.0285 51.7455 14.9944 51.8944 15.0007 52.0443C15.007 52.1943 15.0534 52.3398 15.1351 52.4657L18.1607 57.0039L15.1351 61.5421C15.0535 61.6681 15.0072 61.8136 15.0009 61.9635C14.9947 62.1134 15.0287 62.2623 15.0995 62.3946C15.1703 62.5269 15.2753 62.6378 15.4035 62.7157C15.5318 62.7937 15.6785 62.8358 15.8286 62.8378L28.3297 62.8378C28.4666 62.8369 28.6006 62.7994 28.7181 62.7292C28.8479 62.6564 28.957 62.5515 29.0349 62.4247C29.1127 62.2978 29.1569 62.1532 29.1631 62.0044V57.8373H50.8319V62.0044C50.8381 62.1532 50.8823 62.2978 50.9602 62.4247C51.0381 62.5516 51.1471 62.6564 51.277 62.7292C51.3944 62.7994 51.5285 62.8369 51.6653 62.8378H64.1666C64.3166 62.8359 64.4634 62.7937 64.5916 62.7158C64.7198 62.6378 64.8248 62.5269 64.8956 62.3946C64.9664 62.2623 65.0005 62.1134 64.9942 61.9635C64.9879 61.8136 64.9416 61.6681 64.86 61.5421L61.8344 57.0039ZM58.7494 51.17H57.4993V49.5032C57.4983 48.6193 57.1468 47.772 56.5218 47.147C55.8968 46.522 55.0494 46.1705 54.1656 46.1695H49.4774C50.382 45.5872 51.4261 45.258 52.5011 45.2164C53.5761 45.1747 54.6426 45.4221 55.5895 45.9328C56.5364 46.4435 57.329 47.1987 57.8847 48.1198C58.4405 49.041 58.7391 50.0943 58.7494 51.17ZM56.855 39.4265C56.6831 44.8337 48.8437 44.832 48.6727 39.4264C48.8445 34.0197 56.6839 34.0206 56.855 39.4265ZM41.8536 22.7582C42.0253 17.3512 49.8654 17.3525 50.0363 22.7583C49.8646 28.1653 42.0245 28.164 41.8536 22.7582ZM45.9482 28.5181C47.4027 28.5204 48.8066 29.052 49.8978 30.0136C50.9891 30.9752 51.6931 32.3011 51.8784 33.7437C50.7384 33.9303 49.6806 34.4547 48.842 35.2492C48.0034 36.0436 47.4225 37.0714 47.1744 38.1997C46.9264 39.3279 47.0227 40.5046 47.4509 41.5775C47.879 42.6504 48.6193 43.5701 49.576 44.2176C48.5858 44.6733 47.7068 45.3394 47.0003 46.1695H46.7308C46.5843 44.8552 46.1001 43.6012 45.3254 42.5295C44.5506 41.4577 43.5117 40.6047 42.3097 40.0534C43.1334 39.4973 43.7998 38.7383 44.2447 37.8497C44.6895 36.961 44.8978 35.9727 44.8494 34.9801C44.8011 33.9875 44.4977 33.0241 43.9685 32.183C43.4393 31.3418 42.7023 30.6512 41.8285 30.1779C42.939 29.1183 44.4132 28.5243 45.9482 28.5181ZM45.0466 46.1695H33.206C33.4139 44.7478 34.1264 43.4483 35.2135 42.5086C36.3005 41.5689 37.6894 41.0518 39.1263 41.0518C40.5632 41.0518 41.9521 41.5689 43.0391 42.5086C44.1261 43.4483 44.8387 44.7478 45.0466 46.1695ZM39.1263 31.1681C44.5333 31.3398 44.532 39.1798 39.1262 39.3508C33.7193 39.179 33.7205 31.339 39.1263 31.1681ZM28.2162 22.7582C28.388 17.3514 36.2274 17.3523 36.3986 22.7583C36.2267 28.1654 28.3872 28.1638 28.2162 22.7582ZM32.3051 28.5181C33.8427 28.513 35.3217 29.1079 36.4277 30.1761C35.5532 30.6489 34.8155 31.3393 34.2857 32.1805C33.7559 33.0217 33.4519 33.9852 33.4032 34.9782C33.3544 35.9711 33.5625 36.9598 34.0074 37.8488C34.4523 38.7378 35.1189 39.4971 35.9428 40.0534C34.7408 40.6047 33.7019 41.4577 32.9272 42.5295C32.1524 43.6012 31.6683 44.8552 31.5217 46.1695H30.4945C29.788 45.3394 28.909 44.6733 27.9189 44.2176C28.8229 43.6055 29.5349 42.7497 29.9725 41.7495C30.4101 40.7492 30.5552 39.6455 30.3912 38.5661C30.2271 37.4868 29.7606 36.476 29.0456 35.6509C28.3305 34.8259 27.3964 34.2203 26.3513 33.9045C26.5012 32.429 27.1929 31.0616 28.2927 30.0666C29.3924 29.0717 30.8221 28.5199 32.3051 28.5181ZM20.6398 39.4265C20.8117 34.0193 28.6511 34.021 28.8222 39.4266C28.6503 44.8333 20.8109 44.8325 20.6398 39.4265ZM24.7296 45.1864C25.8985 45.1827 27.0424 45.5248 28.0174 46.1695H25.8295C24.9456 46.1705 24.0982 46.522 23.4733 47.147C22.8483 47.772 22.4968 48.6193 22.4958 49.5032V51.17H18.7455C18.7473 49.5836 19.3784 48.0626 20.5002 46.9408C21.6221 45.8191 23.1431 45.1881 24.7296 45.1864ZM17.3859 61.171L19.8556 57.4662C19.9469 57.3293 19.9956 57.1685 19.9956 57.0039C19.9956 56.8394 19.9469 56.6785 19.8556 56.5416L17.3859 52.8368H22.4958C22.4717 53.5839 22.491 54.3316 22.5537 55.0764C22.5082 55.2024 22.4943 55.3376 22.5133 55.4702C22.5323 55.6028 22.5836 55.7287 22.6627 55.8368L26.6633 61.171H17.3859ZM27.4963 59.5047L26.2458 57.8373H27.4963V59.5047ZM25.8295 56.1705C25.3876 56.17 24.9639 55.9942 24.6514 55.6817C24.3389 55.3693 24.1632 54.9456 24.1626 54.5037V49.5032C24.1632 49.0613 24.3389 48.6376 24.6514 48.3251C24.9639 48.0126 25.3876 47.8369 25.8295 47.8364H54.1656C54.6075 47.8369 55.0312 48.0126 55.3437 48.3251C55.6561 48.6376 55.8319 49.0613 55.8324 49.5032V54.5037C55.8319 54.9456 55.6561 55.3693 55.3437 55.6817C55.0312 55.9942 54.6075 56.17 54.1656 56.1705H25.8295ZM52.4988 57.8373H53.7493L52.4988 59.5047V57.8373ZM53.3318 61.171L57.3324 55.8368C57.4115 55.7287 57.4628 55.6028 57.4818 55.4702C57.5008 55.3376 57.4869 55.2023 57.4414 55.0763C57.5046 54.3316 57.524 53.5838 57.4993 52.8368H62.6092L60.1395 56.5416C60.0482 56.6785 59.9994 56.8394 59.9994 57.0039C59.9994 57.1685 60.0482 57.3293 60.1395 57.4662L62.6092 61.171H53.3318Z" stroke="#37393A" mask="url(#path-2-outside-1_311_2525)"/>
<defs>
<linearGradient id="paint0_linear_311_2525" x1="83.8" y1="-7.05619" x2="-30.1794" y2="53.205" gradientUnits="userSpaceOnUse">
<stop stop-color="#C49D8A"/>
<stop offset="0.244792" stop-color="#E3CBC7"/>
<stop offset="0.557292" stop-color="#AFC2C8"/>
<stop offset="0.770833" stop-color="#AFC2C8"/>
<stop offset="1" stop-color="#5DB6B9"/>
</linearGradient>
</defs>
</svg>
