<svg width="80" height="80" viewBox="0 0 80 80" fill="none" xmlns="http://www.w3.org/2000/svg">
<rect width="80" height="80" rx="40" fill="url(#paint0_linear_139_1954)"/>
<path d="M52.6248 41.1006C52.6248 40.0219 52.1558 38.99 51.4054 38.2396C50.0921 36.9263 48.0284 36.7387 46.4806 37.6299C44.9329 36.7387 42.8692 36.9732 41.6028 38.2865C40.8524 39.0369 40.4303 40.0688 40.4303 41.1475C40.4303 42.2263 40.8993 43.2581 41.6497 44.0085L45.7771 48.0421C46.0116 48.2766 46.293 48.3704 46.6213 48.3704C46.9497 48.3704 47.2311 48.2297 47.4656 48.0421L51.4992 44.0085C52.2027 43.1643 52.6248 42.1794 52.6248 41.1006ZM50.139 42.6015L46.6213 46.166L42.963 42.6484C42.5409 42.2263 42.3064 41.7103 42.3064 41.1006C42.3064 40.5378 42.5409 39.975 42.9161 39.5998C43.3382 39.1776 43.901 38.9431 44.4638 38.9431C44.9798 38.9431 45.4957 39.1307 45.8709 39.459C46.2461 39.7405 46.762 39.7405 47.0904 39.459C47.9346 38.7086 49.2479 38.7555 50.0921 39.5528C50.5142 39.975 50.7487 40.4909 50.7487 41.1006C50.7487 41.6634 50.5142 42.2263 50.139 42.6015ZM38.0852 24.6849C38.0852 23.6061 37.6161 22.5743 36.8657 21.8239C35.5525 20.5106 33.4888 20.323 31.941 21.2141C30.3932 20.323 28.3295 20.5575 27.0632 21.8708C26.3127 22.6212 25.8906 23.653 25.8906 24.7318C25.8906 25.8105 26.3596 26.8424 27.1101 27.5928L31.2375 31.6264C31.472 31.8609 31.7534 31.9547 32.0817 31.9547C32.41 31.9547 32.6914 31.814 32.9259 31.6264L36.9595 27.5928C37.663 26.7486 38.0852 25.7636 38.0852 24.6849ZM35.5994 26.1858L32.0817 29.7503L28.4233 26.2327C28.0012 25.8105 27.7667 25.2946 27.7667 24.6849C27.7667 24.1221 28.0012 23.5592 28.3764 23.184C28.7986 22.7619 29.3614 22.5274 29.9242 22.5274C30.4401 22.5274 30.956 22.715 31.3313 23.0433C31.7065 23.3247 32.2224 23.3247 32.5507 23.0433C33.395 22.2929 34.7082 22.3398 35.5525 23.1371C35.9746 23.5592 36.2091 24.0752 36.2091 24.6849C36.2091 25.2477 35.9746 25.8105 35.5994 26.1858Z" fill="#37393A"/>
<path d="M69.2769 34.5814L61.3973 17.2745C60.9283 16.1958 59.9902 15.4453 58.8646 15.1639C57.739 14.8825 56.5664 15.0701 55.6284 15.7736C54.1744 16.8055 53.6116 18.7285 54.2682 20.37L57.5982 29.3283C57.5044 29.469 57.3637 29.6097 57.2699 29.7505C56.9416 30.2664 56.754 30.9699 56.7071 31.7203C56.6133 33.7371 56.0505 35.8008 55.5346 37.7707V37.8176C55.2062 39.084 54.831 40.3972 54.5027 41.6636C54.0806 43.1175 53.6585 44.6653 53.2833 46.1662C52.7204 48.3237 52.3921 50.575 52.2045 52.967C52.2045 53.1546 52.2045 53.3422 52.2045 53.5298H52.1576C50.8443 53.5298 49.8125 54.5616 49.8125 55.8749V62.4412C49.8125 63.7545 50.8443 64.7863 52.1576 64.7863H65.2902C66.6034 64.7863 67.6353 63.7545 67.6353 62.4412V55.828C67.6353 54.5147 66.6034 53.4829 65.2902 53.4829H65.1026C65.1026 53.436 65.1026 53.3422 65.1495 53.2953L69.4176 41.6636C69.7459 40.8193 69.9335 39.9751 69.9804 39.1309C70.0742 37.5362 69.8397 35.9415 69.2769 34.5814ZM65.2902 55.359C65.5716 55.359 65.7592 55.5466 65.7592 55.828V62.3943C65.7592 62.6757 65.5716 62.8633 65.2902 62.8633H52.1576C51.8762 62.8633 51.6886 62.6757 51.6886 62.3943V55.828C51.6886 55.5466 51.8762 55.359 52.1576 55.359H65.2902ZM68.0574 38.9902C68.0105 39.6468 67.8698 40.3503 67.5884 41.007L63.3203 52.6856C63.3203 52.7325 63.3203 52.7325 63.2734 52.7794C63.2265 53.0139 63.1796 53.2484 63.1327 53.5298H54.0806C54.0806 53.3891 54.0806 53.2484 54.0806 53.1077C54.2213 50.8564 54.5965 48.652 55.1124 46.6352C55.4877 45.1343 55.9098 43.6335 56.3319 42.1795C56.7071 40.9131 57.0354 39.5999 57.4106 38.3335V38.2866C57.9735 36.2229 58.5363 34.0654 58.6301 31.861C58.6301 31.392 58.7708 31.0168 58.9115 30.7823C59.1929 30.3602 59.4274 30.3602 59.5681 30.3602C60.4124 30.4071 61.2097 31.6265 61.3973 33.0805C61.7725 35.7539 61.8194 39.1309 59.8495 43.9618C59.6619 44.4308 59.8964 44.9936 60.3655 45.1812C60.8345 45.3688 61.3973 45.1343 61.5849 44.6653C63.7893 39.4592 63.6486 35.7539 63.2734 32.7991C62.9451 30.3602 61.4911 28.5779 59.7088 28.4372C59.615 28.4372 59.4743 28.4372 59.3805 28.4372L56.1443 19.6665C55.816 18.8223 56.0974 17.8373 56.8478 17.2745C57.3168 16.9462 57.9266 16.8055 58.4894 16.9931C59.0522 17.1338 59.5212 17.5559 59.8026 18.0718L67.6822 35.3318C68.0105 36.4105 68.1981 37.6769 68.0574 38.9902Z" fill="#37393A"/>
<path d="M28.2379 53.483H27.722C27.722 53.2954 27.722 53.1078 27.722 52.9202C27.5344 50.5282 27.206 48.23 26.6432 46.1194C26.268 44.6185 25.8459 43.1176 25.4238 41.6168C25.0486 40.3504 24.7202 39.0841 24.3919 37.7708V37.7239C23.876 35.754 23.3132 33.6903 23.2194 31.6735C23.1725 30.8762 22.9849 30.2196 22.6565 29.7036C22.5158 29.516 22.3751 29.3284 22.2344 29.1408L25.6583 20.3232C26.3149 18.6348 25.799 16.7587 24.345 15.7268C23.407 15.0702 22.2344 14.8357 21.1088 15.1171C19.9831 15.3985 19.092 16.1958 18.5761 17.2277L10.6965 34.5815C10.1337 35.8947 9.89918 37.5363 10.0399 39.0841C10.0868 39.9283 10.2744 40.7725 10.6027 41.6168L14.8708 53.2485C14.8708 53.3423 14.9177 53.3892 14.9177 53.483C13.6513 53.6237 12.7602 54.6086 12.7602 55.8281V62.3944C12.7602 63.7076 13.7921 64.7395 15.1053 64.7395H28.2379C29.5512 64.7395 30.583 63.7076 30.583 62.3944V55.8281C30.583 54.5148 29.5512 53.483 28.2379 53.483ZM12.2912 41.007C12.0567 40.3035 11.8691 39.6469 11.8222 38.9903C11.7284 37.7239 11.916 36.4106 12.3381 35.3788L20.2176 18.0719C20.4521 17.5091 20.9212 17.1339 21.5309 16.9932C22.0937 16.8525 22.7034 16.9463 23.1725 17.2746C23.9229 17.8374 24.2043 18.7755 23.876 19.6666L20.4521 28.4373C20.4052 28.4373 20.3583 28.4373 20.2645 28.4373C18.4823 28.5311 17.0283 30.3134 16.7 32.7992C16.3248 35.7071 16.231 39.4124 18.3885 44.6654C18.5761 45.1344 19.1389 45.3689 19.6079 45.1813C20.0769 44.9937 20.3114 44.4309 20.1238 43.9619C18.107 39.131 18.2008 35.754 18.5761 33.0806C18.7637 31.6266 19.561 30.4072 20.4052 30.3603C20.4991 30.3603 20.7805 30.3603 21.0619 30.7824C21.2026 31.0169 21.2964 31.3921 21.3433 31.8611C21.4371 34.0655 21.9999 36.223 22.5627 38.2867V38.3336C22.8911 39.6469 23.2663 40.9132 23.6415 42.1796C24.0636 43.6336 24.4857 45.1344 24.8609 46.6353C25.3769 48.6521 25.7052 50.8565 25.8928 53.1078C25.8928 53.2485 25.8928 53.3892 25.8928 53.5299H16.7469C16.7469 53.2954 16.7 53.014 16.6062 52.7795C16.6062 52.7326 16.6062 52.7326 16.5593 52.6857L12.2912 41.007ZM28.7069 62.3944C28.7069 62.6758 28.5193 62.8634 28.2379 62.8634H15.1053C14.8239 62.8634 14.6363 62.6758 14.6363 62.3944V55.8281C14.6363 55.5467 14.8239 55.3591 15.1053 55.3591H28.2379C28.5193 55.3591 28.7069 55.5467 28.7069 55.8281V62.3944Z" fill="#37393A"/>
<defs>
<linearGradient id="paint0_linear_139_1954" x1="83.8" y1="-7.05619" x2="-30.1794" y2="53.205" gradientUnits="userSpaceOnUse">
<stop stop-color="#C49D8A"/>
<stop offset="0.244792" stop-color="#E3CBC7"/>
<stop offset="0.557292" stop-color="#AFC2C8"/>
<stop offset="0.770833" stop-color="#AFC2C8"/>
<stop offset="1" stop-color="#5DB6B9"/>
</linearGradient>
</defs>
</svg>
