<svg width="80" height="80" viewBox="0 0 80 80" fill="none" xmlns="http://www.w3.org/2000/svg">
<rect width="80" height="80" rx="40" fill="url(#paint0_linear_311_2520)"/>
<path d="M23.5937 16C23.5941 16 23.5942 16.0004 23.594 16.0006L21.8167 17.7754C21.4102 18.1814 21.41 18.8402 21.8164 19.2464L23.5659 20.9951C24.2594 21.6882 25.3834 21.6881 26.0766 20.9948L26.2369 20.8345C26.8418 20.2296 26.8418 19.2489 26.2369 18.6441L23.5935 16.0006C23.5933 16.0004 23.5934 16 23.5937 16ZM57.6626 17.2564C56.9693 16.5625 55.8447 16.5622 55.1509 17.2557L53.9229 18.483C53.2289 19.1767 53.229 20.3018 53.9231 20.9954C54.6166 21.6884 55.7405 21.6883 56.4339 20.9952L57.6619 19.7679C58.3556 19.0745 58.3559 17.9501 57.6626 17.2564ZM40 17.1143C39.4107 17.1214 38.8143 17.1554 38.2143 17.2286C38.1964 17.2286 38.1786 17.225 38.1607 17.2286C30.9179 18.0589 25.1536 23.9107 24.1518 31.1214C23.3518 36.925 25.7446 42.1875 29.7321 45.5768C31.3166 46.929 32.403 48.7703 32.8219 50.8072C32.8465 50.9269 32.8571 51.049 32.8571 51.1712V59.7018C32.8571 60.8064 33.7526 61.7018 34.8571 61.7018H35.7794C36.491 61.7018 37.1212 62.1147 37.6518 62.5888C38.277 63.1476 39.0955 63.4875 40 63.4875C40.9045 63.4875 41.723 63.1476 42.3482 62.5888C42.8788 62.1147 43.509 61.7018 44.2206 61.7018H45.1429C46.2474 61.7018 47.1429 60.8064 47.1429 59.7018V54.6429C47.1429 54.5965 47.1804 54.5589 47.2268 54.5589C47.2731 54.5589 47.3107 54.5214 47.3107 54.475V52.4375C47.3107 49.8196 48.6714 47.1804 50.8821 45.1286C53.8393 42.1679 56.0714 37.9625 56.0714 33.1321C56.0714 24.3107 48.8107 17.0321 40 17.1143ZM39.9982 20.6866C39.9994 20.686 40.0007 20.6857 40.002 20.6857C46.9029 20.5904 52.5 26.24 52.5 33.1321C52.5 36.8569 50.7813 40.1387 48.3976 42.5327C48.3822 42.5482 48.3822 42.5733 48.3976 42.5887C48.4135 42.6046 48.413 42.6306 48.3965 42.6459C46.4598 44.4424 45.0833 46.7445 44.4112 49.2754C44.1542 50.2433 43.3224 50.9893 42.321 50.9893H38.0186C37.0125 50.9893 36.1785 50.2368 35.9338 49.2609C35.3253 46.8334 34.0824 44.5624 32.0732 42.8411C28.9179 40.1625 27.0375 36.1268 27.6661 31.5696C28.4464 25.9446 33.0107 21.4214 38.6036 20.8018C39.0647 20.7375 39.529 20.6994 39.9945 20.6876C39.9958 20.6875 39.997 20.6872 39.9982 20.6866ZM16.7857 33.1321C15.7995 33.1321 15 33.9316 15 34.9179C15 35.9041 15.7995 36.7036 16.7857 36.7036H18.5714C19.5577 36.7036 20.3571 35.9041 20.3571 34.9179C20.3571 33.9316 19.5577 33.1321 18.5714 33.1321H16.7857ZM61.4286 33.1321C60.4423 33.1321 59.6429 33.9316 59.6429 34.9179C59.6429 35.9041 60.4423 36.7036 61.4286 36.7036H63.2143C64.2005 36.7036 65 35.9041 65 34.9179C65 33.9316 64.2005 33.1321 63.2143 33.1321H61.4286ZM26.0765 48.8417C25.3834 48.148 24.2592 48.1477 23.5656 48.8409L22.3385 50.0674C21.6447 50.7609 21.6446 51.8856 22.3382 52.5793C23.032 53.2731 24.157 53.2728 24.8504 52.5787L26.0766 51.3513C26.7692 50.6581 26.7691 49.5348 26.0765 48.8417ZM56.4342 48.8408C55.7407 48.1476 54.6166 48.1477 53.9232 48.8411C53.2299 49.5344 53.2297 50.6586 53.9229 51.3521L55.1494 52.5792C55.843 53.2731 56.9678 53.2732 57.6616 52.5795C58.3554 51.8857 58.3552 50.7609 57.6613 50.0673L56.4342 48.8408ZM36.4286 56.3464C36.4286 55.3602 37.2281 54.5607 38.2143 54.5607H41.7857C42.7719 54.5607 43.5714 55.3602 43.5714 56.3464C43.5714 57.3326 42.7719 58.1321 41.7857 58.1321H38.2143C37.2281 58.1321 36.4286 57.3326 36.4286 56.3464Z" fill="#37393A"/>
<defs>
<linearGradient id="paint0_linear_311_2520" x1="83.8" y1="-7.05619" x2="-30.1794" y2="53.205" gradientUnits="userSpaceOnUse">
<stop stop-color="#C49D8A"/>
<stop offset="0.244792" stop-color="#E3CBC7"/>
<stop offset="0.557292" stop-color="#AFC2C8"/>
<stop offset="0.770833" stop-color="#AFC2C8"/>
<stop offset="1" stop-color="#5DB6B9"/>
</linearGradient>
</defs>
</svg>
