<svg width="80" height="80" viewBox="0 0 80 80" fill="none" xmlns="http://www.w3.org/2000/svg">
<rect width="80" height="80" rx="40" fill="url(#paint0_linear_138_1948)"/>
<path d="M55.625 27.5C55.625 28.3288 55.2958 29.1237 54.7097 29.7097C54.1237 30.2958 53.3288 30.625 52.5 30.625C51.6712 30.625 50.8763 30.2958 50.2903 29.7097C49.7042 29.1237 49.375 28.3288 49.375 27.5C49.375 26.6712 49.7042 25.8763 50.2903 25.2903C50.8763 24.7042 51.6712 24.375 52.5 24.375C53.3288 24.375 54.1237 24.7042 54.7097 25.2903C55.2958 25.8763 55.625 26.6712 55.625 27.5ZM47.8125 15C38.2 15 30.625 22.575 30.625 32.1875C30.625 33.4281 30.75 34.675 31.0063 35.8594C31.1875 36.7031 30.9812 37.4344 30.5625 37.8531L16.375 52.0406C15.9389 52.4762 15.5929 52.9936 15.357 53.5631C15.121 54.1325 14.9997 54.743 15 55.3594V60.3125C15 61.5557 15.4939 62.748 16.3729 63.6271C17.252 64.5061 18.4443 65 19.6875 65H25.9375C27.1807 65 28.373 64.5061 29.2521 63.6271C30.1311 62.748 30.625 61.5557 30.625 60.3125V58.75H33.75C34.5788 58.75 35.3737 58.4208 35.9597 57.8347C36.5458 57.2487 36.875 56.4538 36.875 55.625V52.5H40C40.8288 52.5 41.6237 52.1708 42.2097 51.5847C42.7958 50.9987 43.125 50.2038 43.125 49.375V48.8125C44.6656 49.2313 46.2719 49.375 47.8125 49.375C57.425 49.375 65 41.8 65 32.1875C65 22.575 57.425 15 47.8125 15ZM33.75 32.1875C33.75 24.3 39.925 18.125 47.8125 18.125C55.7 18.125 61.875 24.3 61.875 32.1875C61.875 40.075 55.7 46.25 47.8125 46.25C45.75 46.25 43.8344 45.9531 42.2625 45.1656C42.0243 45.0463 41.7595 44.9898 41.4933 45.0016C41.2271 45.0134 40.9684 45.0931 40.7417 45.233C40.5149 45.373 40.3278 45.5686 40.198 45.8013C40.0682 46.034 40 46.2961 40 46.5625V49.375H36.875C36.0462 49.375 35.2513 49.7042 34.6653 50.2903C34.0792 50.8763 33.75 51.6712 33.75 52.5V55.625H30.625C29.7962 55.625 29.0013 55.9542 28.4153 56.5403C27.8292 57.1263 27.5 57.9212 27.5 58.75V60.3125C27.5 60.7269 27.3354 61.1243 27.0424 61.4174C26.7493 61.7104 26.3519 61.875 25.9375 61.875H19.6875C19.2731 61.875 18.8757 61.7104 18.5826 61.4174C18.2896 61.1243 18.125 60.7269 18.125 60.3125V55.3562C18.1251 54.9426 18.2892 54.546 18.5813 54.2531L32.7719 40.0625C34.1219 38.7125 34.4031 36.8 34.0594 35.2C33.8509 34.2095 33.7472 33.1997 33.75 32.1875Z" fill="#37393A"/>
<defs>
<linearGradient id="paint0_linear_138_1948" x1="83.8" y1="-7.05619" x2="-30.1794" y2="53.205" gradientUnits="userSpaceOnUse">
<stop stop-color="#C49D8A"/>
<stop offset="0.244792" stop-color="#E3CBC7"/>
<stop offset="0.557292" stop-color="#AFC2C8"/>
<stop offset="0.770833" stop-color="#AFC2C8"/>
<stop offset="1" stop-color="#5DB6B9"/>
</linearGradient>
</defs>
</svg>
