<svg width="61" height="60" viewBox="0 0 61 60" fill="none" xmlns="http://www.w3.org/2000/svg">
<path d="M55.5 41.9325C51.53 40.9975 49.49 38.7 47.8 36.1425C46.74 34.5425 44.4125 34.64 43.2625 36.1775C40.6375 39.69 36.7125 42.5 30.5 42.5C24.2325 42.5 20.295 38.9225 17.6675 35.5575C16.5675 34.1525 14.4675 34.17 13.505 35.6725C11.75 38.415 9.71 40.94 5.5 41.9325M55.5 54.4325C51.53 53.4975 49.49 51.2 47.8 48.6425C46.74 47.0425 44.4125 47.14 43.2625 48.6775C40.6375 52.19 36.7125 55 30.5 55C24.2325 55 20.295 51.4225 17.6675 48.0575C16.5675 46.6525 14.4675 46.67 13.505 48.1725C11.75 50.915 9.71 53.44 5.5 54.4325" stroke="#3D6B8C" stroke-width="4" stroke-linecap="round" stroke-linejoin="round"/>
<path d="M55.5 41.9325C51.53 40.9975 49.49 38.7 47.8 36.1425C46.74 34.5425 44.4125 34.64 43.2625 36.1775C40.6375 39.69 36.7125 42.5 30.5 42.5C24.2325 42.5 20.295 38.9225 17.6675 35.5575C16.5675 34.1525 14.4675 34.17 13.505 35.6725C11.75 38.415 9.71 40.94 5.5 41.9325M55.5 54.4325C51.53 53.4975 49.49 51.2 47.8 48.6425C46.74 47.0425 44.4125 47.14 43.2625 48.6775C40.6375 52.19 36.7125 55 30.5 55C24.2325 55 20.295 51.4225 17.6675 48.0575C16.5675 46.6525 14.4675 46.67 13.505 48.1725C11.75 50.915 9.71 53.44 5.5 54.4325" stroke="black" stroke-opacity="0.2" stroke-width="4" stroke-linecap="round" stroke-linejoin="round"/>
<path d="M45.2925 27.5C44.6983 24.0069 42.8871 20.8368 40.1797 18.551C37.4723 16.2652 34.0433 15.0113 30.5 15.0113C26.9567 15.0113 23.5277 16.2652 20.8203 18.551C18.1129 20.8368 16.3017 24.0069 15.7075 27.5M30.5 5V7.5M55.5 30H53M8 30H5.5M48.175 12.325L47.1925 13.3075M13.805 13.305L12.825 12.325" stroke="#3D6B8C" stroke-width="4" stroke-linecap="round"/>
<path d="M45.2925 27.5C44.6983 24.0069 42.8871 20.8368 40.1797 18.551C37.4723 16.2652 34.0433 15.0113 30.5 15.0113C26.9567 15.0113 23.5277 16.2652 20.8203 18.551C18.1129 20.8368 16.3017 24.0069 15.7075 27.5M30.5 5V7.5M55.5 30H53M8 30H5.5M48.175 12.325L47.1925 13.3075M13.805 13.305L12.825 12.325" stroke="black" stroke-opacity="0.2" stroke-width="4" stroke-linecap="round"/>
</svg>
