<svg width="80" height="80" viewBox="0 0 80 80" fill="none" xmlns="http://www.w3.org/2000/svg">
<rect width="80" height="80" rx="40" fill="url(#paint0_linear_311_2537)"/>
<path d="M64.3208 45.8359C63.6542 44.6711 62.5744 43.8413 61.283 43.4963C59.9916 43.1514 58.6452 43.3364 57.5687 43.9646L48.7954 48.4487C47.8755 47.364 46.5224 46.6607 44.9944 46.6607H31.6636C29.3023 46.6607 26.8644 47.9455 25.2298 49.9935H23.3318C23.3318 49.0736 22.5852 48.3271 21.6654 48.3271H16.6664C15.7465 48.3271 15 49.0736 15 49.9935V63.3243C15 64.2441 15.7465 64.9907 16.6664 64.9907H21.6654C22.5852 64.9907 23.3318 64.2441 23.3318 63.3243H41.6617C42.8965 63.3243 44.6061 62.8111 45.5343 62.1912L62.4745 52.6663L62.6411 52.5597C64.9823 50.85 65.6572 48.1471 64.3208 45.8359ZM19.9991 61.6579H18.3327V51.6598H19.9991V61.6579ZM60.7481 49.8152L43.7996 59.3484C43.308 59.6733 42.2499 59.9916 41.6617 59.9916H23.3318V53.3262H26.0813C26.6478 53.3262 27.1761 53.0379 27.4827 52.5613C28.4708 51.0249 30.1505 49.9935 31.6636 49.9935H44.9944C45.9142 49.9935 46.6607 50.7417 46.6607 51.6598C46.6607 52.578 45.9142 53.3262 44.9944 53.3262H34.9963C34.0764 53.3262 33.3299 54.0727 33.3299 54.9925C33.3299 55.9124 34.0764 56.6589 34.9963 56.6589H44.9944C47.7505 56.6589 49.9935 54.416 49.9935 51.6598C49.9935 51.6332 49.9851 51.6082 49.9851 51.5832L59.1651 46.889C59.55 46.6641 59.9999 46.6041 60.4215 46.7157C60.8498 46.8307 61.208 47.1057 61.433 47.5006C62.0229 48.5187 61.4047 49.3119 60.7481 49.8152ZM19.9991 41.6617H59.9916C60.9131 41.6617 61.6579 40.9152 61.6579 39.9953V16.6664C61.6579 15.7465 60.9131 15 59.9916 15H19.9991C19.0792 15 18.3327 15.7465 18.3327 16.6664V39.9953C18.3327 40.9152 19.0792 41.6617 19.9991 41.6617ZM28.1625 18.3327H51.8298C52.493 21.5921 55.0658 24.165 58.3252 24.8298V31.8319C55.0658 32.4967 52.493 35.0696 51.8298 38.329H28.1625C27.4977 35.0696 24.9248 32.4967 21.6654 31.8319V24.8298C24.9248 24.165 27.4977 21.5921 28.1625 18.3327ZM21.6654 35.3029C23.0768 35.8061 24.1883 36.9176 24.6915 38.329H21.6654V35.3029ZM55.3008 38.329C55.804 36.9176 56.9138 35.8061 58.3252 35.3029V38.329H55.3008ZM58.3252 21.3571C56.9122 20.8556 55.8024 19.7441 55.3008 18.3327H58.3252V21.3571ZM24.6915 18.3327C24.1883 19.7441 23.0768 20.8556 21.6654 21.3588V18.3327H24.6915Z" fill="#37393A"/>
<path d="M39.9958 36.6626C44.59 36.6626 48.3276 32.9249 48.3276 28.3308C48.3276 23.7367 44.59 19.999 39.9958 19.999C35.4017 19.999 31.6641 23.7367 31.6641 28.3308C31.6641 32.9249 35.4017 36.6626 39.9958 36.6626ZM39.9958 23.3317C42.752 23.3317 44.9949 25.5746 44.9949 28.3308C44.9949 31.087 42.752 33.3299 39.9958 33.3299C37.2397 33.3299 34.9968 31.087 34.9968 28.3308C34.9968 25.5746 37.2397 23.3317 39.9958 23.3317Z" fill="#37393A"/>
<defs>
<linearGradient id="paint0_linear_311_2537" x1="83.8" y1="-7.05619" x2="-30.1794" y2="53.205" gradientUnits="userSpaceOnUse">
<stop stop-color="#C49D8A"/>
<stop offset="0.244792" stop-color="#E3CBC7"/>
<stop offset="0.557292" stop-color="#AFC2C8"/>
<stop offset="0.770833" stop-color="#AFC2C8"/>
<stop offset="1" stop-color="#5DB6B9"/>
</linearGradient>
</defs>
</svg>
