<svg width="80" height="80" viewBox="0 0 80 80" fill="none" xmlns="http://www.w3.org/2000/svg">
<rect width="80" height="80" rx="40" fill="url(#paint0_linear_311_2530)"/>
<path d="M35.8824 64.4118H44.1176H58.8235C59.4706 64.4118 60 63.8824 60 63.2353V16.1765C60 15.5294 59.4706 15 58.8235 15H21.1765C20.5294 15 20 15.5294 20 16.1765V63.2353C20 63.8824 20.5294 64.4118 21.1765 64.4118H35.8824ZM42.9412 62.0588H37.0588V53.8235H42.9412V62.0588ZM22.3529 17.3529H57.6471V62.0588H45.2941V52.6471C45.2941 52 44.7647 51.4706 44.1176 51.4706H35.8824C35.2353 51.4706 34.7059 52 34.7059 52.6471V62.0588H22.3529V17.3529Z" fill="#37393A"/>
<path d="M31.7652 20.8823H27.0593C26.4122 20.8823 25.8828 21.4117 25.8828 22.0588V26.7647C25.8828 27.4117 26.4122 27.9411 27.0593 27.9411H31.7652C32.4122 27.9411 32.9416 27.4117 32.9416 26.7647V22.0588C32.9416 21.4117 32.4122 20.8823 31.7652 20.8823ZM30.5887 25.5882H28.2358V23.2353H30.5887V25.5882ZM37.6475 27.9411H42.3534C43.0005 27.9411 43.5299 27.4117 43.5299 26.7647V22.0588C43.5299 21.4117 43.0005 20.8823 42.3534 20.8823H37.6475C37.0005 20.8823 36.471 21.4117 36.471 22.0588V26.7647C36.471 27.4117 37.0005 27.9411 37.6475 27.9411ZM38.824 23.2353H41.1769V25.5882H38.824V23.2353ZM48.2358 27.9411H52.9416C53.5887 27.9411 54.1181 27.4117 54.1181 26.7647V22.0588C54.1181 21.4117 53.5887 20.8823 52.9416 20.8823H48.2358C47.5887 20.8823 47.0593 21.4117 47.0593 22.0588V26.7647C47.0593 27.4117 47.5887 27.9411 48.2358 27.9411ZM49.4122 23.2353H51.7652V25.5882H49.4122V23.2353ZM31.7652 30.2941H27.0593C26.4122 30.2941 25.8828 30.8235 25.8828 31.4706V36.1764C25.8828 36.8235 26.4122 37.3529 27.0593 37.3529H31.7652C32.4122 37.3529 32.9416 36.8235 32.9416 36.1764V31.4706C32.9416 30.8235 32.4122 30.2941 31.7652 30.2941ZM30.5887 35H28.2358V32.647H30.5887V35ZM37.6475 37.3529H42.3534C43.0005 37.3529 43.5299 36.8235 43.5299 36.1764V31.4706C43.5299 30.8235 43.0005 30.2941 42.3534 30.2941H37.6475C37.0005 30.2941 36.471 30.8235 36.471 31.4706V36.1764C36.471 36.8235 37.0005 37.3529 37.6475 37.3529ZM38.824 32.647H41.1769V35H38.824V32.647ZM48.2358 37.3529H52.9416C53.5887 37.3529 54.1181 36.8235 54.1181 36.1764V31.4706C54.1181 30.8235 53.5887 30.2941 52.9416 30.2941H48.2358C47.5887 30.2941 47.0593 30.8235 47.0593 31.4706V36.1764C47.0593 36.8235 47.5887 37.3529 48.2358 37.3529ZM49.4122 32.647H51.7652V35H49.4122V32.647ZM31.7652 39.7059H27.0593C26.4122 39.7059 25.8828 40.2353 25.8828 40.8823V45.5882C25.8828 46.2353 26.4122 46.7647 27.0593 46.7647H31.7652C32.4122 46.7647 32.9416 46.2353 32.9416 45.5882V40.8823C32.9416 40.2353 32.4122 39.7059 31.7652 39.7059ZM30.5887 44.4117H28.2358V42.0588H30.5887V44.4117ZM37.6475 46.7647H42.3534C43.0005 46.7647 43.5299 46.2353 43.5299 45.5882V40.8823C43.5299 40.2353 43.0005 39.7059 42.3534 39.7059H37.6475C37.0005 39.7059 36.471 40.2353 36.471 40.8823V45.5882C36.471 46.2353 37.0005 46.7647 37.6475 46.7647ZM38.824 42.0588H41.1769V44.4117H38.824V42.0588ZM48.2358 46.7647H52.9416C53.5887 46.7647 54.1181 46.2353 54.1181 45.5882V40.8823C54.1181 40.2353 53.5887 39.7059 52.9416 39.7059H48.2358C47.5887 39.7059 47.0593 40.2353 47.0593 40.8823V45.5882C47.0593 46.2353 47.5887 46.7647 48.2358 46.7647ZM49.4122 42.0588H51.7652V44.4117H49.4122V42.0588Z" fill="#37393A"/>
<defs>
<linearGradient id="paint0_linear_311_2530" x1="83.8" y1="-7.05619" x2="-30.1794" y2="53.205" gradientUnits="userSpaceOnUse">
<stop stop-color="#C49D8A"/>
<stop offset="0.244792" stop-color="#E3CBC7"/>
<stop offset="0.557292" stop-color="#AFC2C8"/>
<stop offset="0.770833" stop-color="#AFC2C8"/>
<stop offset="1" stop-color="#5DB6B9"/>
</linearGradient>
</defs>
</svg>
