<svg width="32" height="22" viewBox="0 0 32 22" fill="none" xmlns="http://www.w3.org/2000/svg">
<path d="M1.36719 16.0533L4.11857 15.0809C8.24564 13.6764 12.9018 14.6488 16.1823 17.674C19.4628 20.6992 24.0132 21.6716 28.2461 20.2671L30.9974 19.2947" stroke="#3D6B8C" stroke-miterlimit="10" stroke-linecap="round" stroke-linejoin="round"/>
<path d="M23.5923 9.57103C25.93 9.57103 27.8252 7.63611 27.8252 5.24926C27.8252 2.86241 25.93 0.92749 23.5923 0.92749C21.2545 0.92749 19.3594 2.86241 19.3594 5.24926C19.3594 7.63611 21.2545 9.57103 23.5923 9.57103Z" stroke="#3D6B8C" stroke-miterlimit="10" stroke-linecap="round" stroke-linejoin="round"/>
<path d="M18.302 19.2957L19.3602 18.2153C21.1592 16.3786 21.1592 13.4614 19.3602 11.7327L11.4235 3.62934C9.94199 2.11672 7.6139 2.11672 6.13238 3.62934L1.4762 8.38328C0.841266 9.03155 0.841266 10.112 1.4762 10.7603C2.00531 11.3005 2.85189 11.4085 3.59265 10.9763L8.77794 7.41088L11.9526 10.6522L8.24883 14.4338" stroke="#3D6B8C" stroke-miterlimit="10" stroke-linecap="round" stroke-linejoin="round"/>
</svg>
