<svg width="32" height="30" viewBox="0 0 32 30" fill="none" xmlns="http://www.w3.org/2000/svg">
<path d="M25.1014 11.4129C25.5864 11.4127 26.0604 11.2777 26.4635 11.025C26.8666 10.7723 27.1808 10.4131 27.3662 9.99301C27.5516 9.5729 27.5999 9.11067 27.5051 8.6648C27.4103 8.21892 27.1766 7.80941 26.8336 7.48806C26.4905 7.1667 26.0535 6.94793 25.5778 6.85942C25.1021 6.7709 24.6091 6.81661 24.1612 6.99077C23.7132 7.16493 23.3304 7.45971 23.0611 7.83784C22.7919 8.21597 22.6482 8.66047 22.6484 9.11512C22.6492 9.72463 22.908 10.3089 23.3679 10.7398C23.8278 11.1706 24.4513 11.4127 25.1014 11.4129ZM25.1014 7.48012C25.4461 7.4803 25.7829 7.57627 26.0694 7.7559C26.3559 7.93552 26.5792 8.19074 26.711 8.48928C26.8428 8.78783 26.8772 9.11631 26.8099 9.4332C26.7426 9.75009 26.5766 10.0412 26.3329 10.2696C26.0892 10.4981 25.7787 10.6537 25.4407 10.7168C25.1027 10.7799 24.7523 10.7476 24.4339 10.624C24.1154 10.5005 23.8432 10.2912 23.6516 10.0226C23.46 9.75402 23.3576 9.43822 23.3574 9.11512C23.3574 8.68149 23.5412 8.26562 23.8682 7.959C24.1953 7.65238 24.6389 7.48012 25.1014 7.48012Z" fill="#3D6B8C"/>
<path d="M25.0977 6.39348C25.1917 6.39323 25.2817 6.35806 25.3481 6.29567C25.4144 6.23328 25.4517 6.14877 25.4517 6.06067V4.51942C25.4542 4.47429 25.447 4.42914 25.4303 4.38673C25.4137 4.34433 25.388 4.30554 25.3548 4.27275C25.3216 4.23996 25.2817 4.21384 25.2374 4.196C25.1931 4.17815 25.1454 4.16895 25.0972 4.16895C25.049 4.16895 25.0013 4.17815 24.957 4.196C24.9127 4.21384 24.8728 4.23996 24.8396 4.27275C24.8064 4.30554 24.7807 4.34433 24.7641 4.38673C24.7474 4.42914 24.7401 4.47429 24.7427 4.51942V6.06067C24.7427 6.14893 24.7801 6.23359 24.8467 6.296C24.9132 6.35841 25.0035 6.39348 25.0977 6.39348Z" fill="#3D6B8C"/>
<path d="M24.7422 12.1677V13.7099C24.747 13.795 24.7865 13.8751 24.8524 13.9337C24.9184 13.9924 25.0058 14.025 25.0967 14.025C25.1876 14.025 25.275 13.9924 25.341 13.9337C25.4069 13.8751 25.4464 13.795 25.4512 13.7099V12.1677C25.4464 12.0826 25.4069 12.0025 25.341 11.9439C25.275 11.8852 25.1876 11.8525 25.0967 11.8525C25.0058 11.8525 24.9184 11.8852 24.8524 11.9439C24.7865 12.0025 24.747 12.0826 24.7422 12.1677Z" fill="#3D6B8C"/>
<path d="M20.1994 9.44691H21.8454C21.9362 9.44239 22.0217 9.40541 22.0842 9.34358C22.1467 9.28175 22.1816 9.19978 22.1816 9.11457C22.1816 9.02936 22.1467 8.94739 22.0842 8.88556C22.0217 8.82373 21.9362 8.78675 21.8454 8.78223H20.1994C20.1087 8.78675 20.0232 8.82373 19.9607 8.88556C19.8981 8.94739 19.8633 9.02936 19.8633 9.11457C19.8633 9.19978 19.8981 9.28175 19.9607 9.34358C20.0232 9.40541 20.1087 9.44239 20.1994 9.44691Z" fill="#3D6B8C"/>
<path d="M29.9968 8.78223H28.3518C28.261 8.78675 28.1756 8.82373 28.113 8.88556C28.0505 8.94739 28.0156 9.02936 28.0156 9.11457C28.0156 9.19978 28.0505 9.28175 28.113 9.34358C28.1756 9.40541 28.261 9.44239 28.3518 9.44691H29.9968C30.0876 9.44239 30.173 9.40541 30.2356 9.34358C30.2981 9.28175 30.333 9.19978 30.333 9.11457C30.333 9.02936 30.2981 8.94739 30.2356 8.88556C30.173 8.82373 30.0876 8.78675 29.9968 8.78223Z" fill="#3D6B8C"/>
<path d="M27.149 11.0393C27.0836 11.1019 27.0469 11.186 27.0469 11.2737C27.0469 11.3613 27.0836 11.4455 27.149 11.508L28.312 12.5984C28.3436 12.6339 28.3827 12.6628 28.4269 12.6834C28.4711 12.7039 28.5194 12.7156 28.5686 12.7177C28.6179 12.7198 28.6671 12.7122 28.7131 12.6955C28.7591 12.6788 28.8008 12.6532 28.8357 12.6205C28.8706 12.5878 28.8978 12.5487 28.9156 12.5056C28.9335 12.4625 28.9415 12.4164 28.9393 12.3702C28.9371 12.324 28.9246 12.2787 28.9027 12.2373C28.8808 12.1959 28.8499 12.1592 28.812 12.1296L27.649 11.0393C27.5827 10.9772 27.4928 10.9424 27.399 10.9424C27.3053 10.9424 27.2154 10.9772 27.149 11.0393Z" fill="#3D6B8C"/>
<path d="M22.5425 7.1904C22.5741 7.22591 22.6133 7.25486 22.6574 7.27541C22.7016 7.29595 22.7499 7.30764 22.7992 7.30973C22.8484 7.31181 22.8976 7.30425 22.9436 7.28753C22.9896 7.2708 23.0313 7.24528 23.0662 7.21259C23.1011 7.17989 23.1283 7.14075 23.1461 7.09764C23.164 7.05454 23.172 7.00842 23.1698 6.96223C23.1676 6.91604 23.1551 6.87079 23.1332 6.82937C23.1113 6.78795 23.0804 6.75127 23.0425 6.72165L21.8815 5.6304C21.85 5.59489 21.8108 5.56595 21.7666 5.5454C21.7225 5.52486 21.6742 5.51317 21.6249 5.51108C21.5757 5.50899 21.5265 5.51655 21.4805 5.53328C21.4345 5.55 21.3928 5.57553 21.3579 5.60822C21.323 5.64091 21.2958 5.68006 21.2779 5.72317C21.2601 5.76627 21.252 5.81239 21.2543 5.85858C21.2565 5.90477 21.269 5.95001 21.2909 5.99143C21.3128 6.03286 21.3437 6.06954 21.3815 6.09915L22.5425 7.1904Z" fill="#3D6B8C"/>
<path d="M27.3998 7.28764C27.4934 7.28873 27.5837 7.25503 27.6508 7.19389L28.8138 6.10358C28.8706 6.03978 28.8998 5.95839 28.8958 5.87541C28.8918 5.79242 28.8549 5.71384 28.7922 5.6551C28.7296 5.59636 28.6457 5.56171 28.5572 5.55796C28.4687 5.55421 28.3819 5.58163 28.3138 5.63483L27.1498 6.72046C27.1005 6.76705 27.067 6.82627 27.0535 6.89066C27.04 6.95505 27.0472 7.02175 27.074 7.08237C27.1008 7.14298 27.1461 7.19481 27.2043 7.23134C27.2625 7.26786 27.3298 7.28745 27.3998 7.28764Z" fill="#3D6B8C"/>
<path d="M22.5422 11.0386L21.3792 12.1289C21.3225 12.1927 21.2932 12.2741 21.2972 12.3571C21.3012 12.4401 21.3382 12.5187 21.4009 12.5774C21.4635 12.6361 21.5473 12.6708 21.6359 12.6745C21.7244 12.6783 21.8112 12.6509 21.8792 12.5977L23.0422 11.5074C23.0801 11.4777 23.111 11.4411 23.1329 11.3996C23.1548 11.3582 23.1673 11.313 23.1695 11.2668C23.1717 11.2206 23.1637 11.1745 23.1458 11.1314C23.128 11.0883 23.1008 11.0491 23.0659 11.0164C23.031 10.9837 22.9893 10.9582 22.9433 10.9415C22.8973 10.9248 22.8481 10.9172 22.7989 10.9193C22.7496 10.9214 22.7013 10.9331 22.6571 10.9536C22.613 10.9741 22.5738 11.0031 22.5422 11.0386Z" fill="#3D6B8C"/>
<path d="M4.03005 13.9601C4.57984 13.9587 5.1103 13.7698 5.52234 13.4285C5.93438 13.0873 6.19981 12.617 6.26904 12.1057C6.28088 12.0083 6.28522 11.9103 6.28204 11.8123C6.54482 11.9637 6.83841 12.062 7.14404 12.101C7.23891 12.1122 7.33443 12.1179 7.43005 12.1179C7.98002 12.1167 8.51075 11.9279 8.92326 11.5869C9.33577 11.2459 9.6019 10.7759 9.67204 10.2645C9.68104 10.1979 9.67904 10.1304 9.68104 10.0638C9.92018 10.1899 10.1824 10.2729 10.454 10.3085C10.5488 10.3205 10.6444 10.3264 10.74 10.3263C10.9973 10.3251 11.2523 10.2823 11.494 10.1998L19.467 23.1438C19.4976 23.1946 19.5421 23.2369 19.5959 23.2662C19.6497 23.2956 19.7108 23.3109 19.773 23.3107C19.8353 23.3111 19.8965 23.2955 19.95 23.2657C19.9904 23.244 20.0257 23.2151 20.0541 23.1806C20.0825 23.1461 20.1033 23.1067 20.1154 23.0646C20.1274 23.0226 20.1305 22.9787 20.1245 22.9355C20.1184 22.8923 20.1033 22.8506 20.08 22.8129L12.114 9.8754C12.3507 9.70647 12.5493 9.49519 12.6983 9.25381C12.8473 9.01242 12.9438 8.74572 12.982 8.46915C12.99 8.40915 12.976 8.34915 12.982 8.28915C13.2186 8.41121 13.4768 8.4922 13.744 8.52822C13.8389 8.53935 13.9344 8.54499 14.03 8.54509C14.5789 8.54285 15.1083 8.35407 15.5201 8.01376C15.9318 7.67346 16.1979 7.20471 16.269 6.69447C16.278 6.62697 16.276 6.5604 16.278 6.4929C16.5172 6.61914 16.7793 6.70244 17.051 6.73853C17.1459 6.74972 17.2414 6.75536 17.337 6.7554C17.8871 6.75435 18.4179 6.56569 18.8305 6.22464C19.243 5.88358 19.5091 5.41344 19.579 4.90197C19.6314 4.49448 19.5541 4.08157 19.357 3.71509C19.3565 3.66219 19.3417 3.61027 19.314 3.56415C18.574 2.3604 16.976 1.74259 14.778 1.82697C12.3826 1.99351 10.0628 2.68729 8.00705 3.85197L7.99904 3.85572H7.99204C5.88685 4.94402 4.0843 6.48137 2.73004 8.34353C1.56104 10.0751 1.33004 11.6923 2.06704 12.896C2.07504 12.9082 2.09004 12.9138 2.09904 12.9251C2.27212 13.2003 2.51007 13.4347 2.79468 13.6103C3.07929 13.786 3.40301 13.8983 3.74104 13.9385C3.83676 13.9517 3.93331 13.9589 4.03005 13.9601ZM8.96905 10.1801C8.9154 10.5624 8.70294 10.9095 8.37787 11.1457C8.0528 11.382 7.64138 11.4885 7.23305 11.442C6.87577 11.3997 6.54597 11.2403 6.30204 10.992L8.91104 9.57915C8.97653 9.77317 8.99632 9.9782 8.96905 10.1801ZM12.279 8.38853C12.2272 8.77154 12.0151 9.11955 11.6896 9.35602C11.364 9.59248 10.9516 9.69804 10.543 9.64947C10.1853 9.60767 9.85507 9.4482 9.61105 9.19947L12.224 7.78572C12.2877 7.98074 12.3064 8.18621 12.279 8.38853ZM15.565 6.60728C15.5133 6.99067 15.3018 7.33925 14.9766 7.57678C14.6515 7.81431 14.2392 7.92146 13.83 7.87478C13.4713 7.83362 13.1396 7.67529 12.893 7.42759L15.508 6.01197C15.5728 6.20517 15.5922 6.40919 15.565 6.61009V6.60728ZM18.876 4.81478C18.8224 5.19687 18.6101 5.54366 18.2852 5.77977C17.9603 6.01589 17.5491 6.12224 17.141 6.07572C16.7831 6.03399 16.4527 5.87413 16.209 5.62478L18.818 4.21853C18.8832 4.41196 18.903 4.61632 18.876 4.81759V4.81478ZM14.807 2.49072C16.535 2.42603 17.82 2.82447 18.501 3.62134L15.901 5.02759C15.7693 4.84921 15.6236 4.6803 15.465 4.52228C15.436 4.49322 15.404 4.46603 15.374 4.4379C15.1487 4.21852 14.9001 4.02125 14.632 3.84915C14.613 3.83697 14.592 3.82759 14.572 3.8154C14.2952 3.64467 14.0016 3.49932 13.695 3.38134C13.679 3.37478 13.664 3.36634 13.648 3.36072C13.3354 3.24568 13.0125 3.15689 12.683 3.0954C12.641 3.08697 12.6 3.07665 12.557 3.06915C12.3256 3.02841 12.0919 3.00024 11.857 2.98478C12.8142 2.70396 13.8054 2.53795 14.807 2.49072ZM10.369 3.73197C10.437 3.71978 10.504 3.71884 10.569 3.70853C10.816 3.67255 11.0652 3.65126 11.315 3.64478C11.42 3.64478 11.522 3.64478 11.625 3.65134C11.8333 3.65705 12.041 3.67427 12.247 3.7029C12.347 3.71697 12.456 3.7329 12.558 3.75353C12.7615 3.7944 12.9619 3.84764 13.158 3.9129C13.244 3.94009 13.332 3.96259 13.415 3.99447C13.6849 4.09606 13.9437 4.22163 14.188 4.36947C14.4245 4.51866 14.6439 4.69018 14.843 4.88134C14.907 4.94228 14.962 5.01259 15.022 5.07728C15.106 5.17103 15.181 5.27134 15.256 5.37165L12.448 6.89697L12.409 6.84353C12.333 6.73009 12.255 6.61759 12.176 6.50509C12.153 6.47415 12.132 6.44134 12.109 6.41134C12.007 6.27197 11.9027 6.13509 11.796 6.00072C11.757 5.95197 11.717 5.90697 11.678 5.85728C11.606 5.77009 11.535 5.68384 11.461 5.6004C11.415 5.54697 11.368 5.4954 11.321 5.4429C11.253 5.3679 11.184 5.29478 11.115 5.22259C11.066 5.17197 11.015 5.12134 10.967 5.07259C10.893 4.99853 10.817 4.92822 10.742 4.85884C10.699 4.81947 10.657 4.77728 10.614 4.73978C10.501 4.6404 10.389 4.55228 10.276 4.45853C10.232 4.42478 10.188 4.39478 10.144 4.36478C10.069 4.3104 9.99404 4.25697 9.92004 4.20822C9.87204 4.17728 9.82004 4.14915 9.77604 4.12009C9.70405 4.07697 9.63204 4.03665 9.56004 4.00009C9.53604 3.9879 9.51104 3.97103 9.48704 3.95978C9.77481 3.86403 10.0696 3.78789 10.369 3.73197ZM8.35105 4.43228C8.35105 4.43228 8.36305 4.43228 8.36805 4.43228C8.43941 4.39806 8.51895 4.38159 8.59905 4.38447C8.62805 4.38447 8.66304 4.39572 8.69904 4.39947C8.77383 4.40882 8.8475 4.42483 8.91904 4.44728C8.96504 4.46228 9.01904 4.48478 9.06305 4.5054C9.14462 4.53858 9.22409 4.57614 9.30104 4.6179C9.35604 4.6479 9.41304 4.68165 9.47105 4.71728C9.55804 4.77165 9.64904 4.83447 9.74204 4.90478C9.80104 4.9479 9.86004 4.99009 9.92104 5.03884C10.027 5.12322 10.137 5.22072 10.248 5.32009C10.3 5.36884 10.348 5.41384 10.405 5.46259C10.571 5.6229 10.74 5.79822 10.911 5.99415C10.933 6.01947 10.955 6.0504 10.977 6.07572C11.1257 6.24884 11.2747 6.43634 11.424 6.63822C11.484 6.71884 11.543 6.8079 11.603 6.89228C11.68 7.0029 11.757 7.12009 11.834 7.23728L9.19904 8.65478C9.14504 8.56103 9.09204 8.46728 9.04104 8.37353C8.98204 8.26478 8.92205 8.15697 8.86805 8.04822C8.79305 7.89915 8.72604 7.75197 8.66104 7.60384C8.61604 7.50353 8.56804 7.40134 8.52704 7.30197C8.46204 7.14072 8.40805 6.98415 8.35605 6.82759C8.32805 6.74697 8.29505 6.66353 8.27105 6.58384C8.20311 6.36205 8.1477 6.13705 8.10504 5.90978C8.07352 5.73455 8.05381 5.55764 8.04604 5.38009C8.03104 4.89634 8.13704 4.54853 8.35105 4.43228ZM5.39904 8.5479C5.40704 8.45415 5.39904 8.35572 5.41904 8.25822C5.466 7.96819 5.54166 7.6829 5.64504 7.40603C5.75139 7.13303 5.88219 6.86896 6.03605 6.61665C6.07704 6.54728 6.12204 6.48072 6.16604 6.41322C6.29701 6.2116 6.44164 6.01808 6.59904 5.83384C6.64304 5.78322 6.68304 5.72978 6.73004 5.67915C6.91961 5.47865 7.12377 5.2907 7.34104 5.11665C7.34104 5.14759 7.34104 5.18322 7.34104 5.2104C7.34104 5.23759 7.34104 5.30415 7.34104 5.34822C7.34431 5.57184 7.36503 5.79493 7.40304 6.01572C7.44905 6.26254 7.5088 6.50693 7.58205 6.7479C7.60705 6.83134 7.64205 6.91853 7.67104 7.00384C7.72804 7.17634 7.78705 7.34884 7.85905 7.52697C7.89904 7.62634 7.94704 7.72759 7.99204 7.82884C8.06604 7.99665 8.14005 8.16259 8.22605 8.33228C8.27905 8.43915 8.33904 8.54603 8.39704 8.65384C8.45504 8.76165 8.51104 8.87509 8.57505 8.98665L5.76404 10.5157C5.72004 10.422 5.67604 10.3367 5.63904 10.2448C5.59604 10.1351 5.55005 10.0273 5.51705 9.91478C5.47472 9.75585 5.44299 9.5946 5.42204 9.43197C5.40604 9.32228 5.38304 9.21353 5.37704 9.10197C5.37096 8.91702 5.37831 8.73191 5.39904 8.5479ZM3.32904 8.70259C3.8716 7.91822 4.51735 7.20102 5.25104 6.5679C5.14678 6.76666 5.05528 6.97109 4.97705 7.18009C4.86818 7.47197 4.78654 7.77216 4.73305 8.07728C4.73305 8.1054 4.72004 8.13353 4.71604 8.16259C4.67185 8.44183 4.65378 8.72415 4.66205 9.00634C4.66205 9.04665 4.66205 9.08697 4.66205 9.12728C4.67636 9.39662 4.71618 9.66424 4.78104 9.92697C4.79204 9.97009 4.80304 10.0132 4.81504 10.0554C4.88712 10.3132 4.98419 10.5642 5.10504 10.8054C5.11304 10.8213 5.11604 10.8392 5.12404 10.8551L2.52404 12.2613C2.35581 11.6502 2.34095 11.0108 2.48062 10.3933C2.62029 9.77585 2.9107 9.19714 3.32904 8.70259ZM5.50804 11.4213C5.57319 11.6154 5.59264 11.8205 5.56504 12.0223C5.52932 12.2964 5.41079 12.5553 5.22342 12.7684C5.03605 12.9815 4.78763 13.14 4.50742 13.2252C4.22721 13.3104 3.92686 13.3187 3.64174 13.2493C3.35662 13.1799 3.09859 13.0355 2.89804 12.8332L5.50804 11.4213Z" fill="#3D6B8C"/>
<path d="M27.3489 24.1451C27.3164 24.0983 27.272 24.0599 27.2196 24.0333C27.1671 24.0068 27.1085 23.993 27.0489 23.9933H8.4009L4.0329 16.8195C4.00979 16.7816 3.97895 16.7484 3.94214 16.7217C3.90533 16.6951 3.86328 16.6754 3.81838 16.664C3.77349 16.6525 3.72662 16.6495 3.68047 16.655C3.63432 16.6606 3.58978 16.6746 3.5494 16.6962C3.50902 16.7179 3.47358 16.7468 3.44512 16.7813C3.41666 16.8158 3.39572 16.8552 3.38351 16.8973C3.3713 16.9394 3.36805 16.9834 3.37395 17.0266C3.37985 17.0699 3.39479 17.1116 3.4179 17.1495L7.7839 24.327L5.7839 27.6861C5.74341 27.7626 5.73586 27.8508 5.76282 27.9324C5.78978 28.014 5.84918 28.0828 5.92872 28.1245C6.00826 28.1661 6.10186 28.1775 6.19012 28.1563C6.27839 28.1351 6.35457 28.0829 6.4029 28.0104L8.4029 24.6579H26.8569L29.1819 28.0311C29.2328 28.105 29.313 28.157 29.4048 28.1756C29.4966 28.1941 29.5925 28.1777 29.6714 28.13C29.7503 28.0822 29.8057 28.0071 29.8255 27.921C29.8453 27.8349 29.8278 27.745 29.7769 27.6711L27.3489 24.1451Z" fill="#3D6B8C"/>
</svg>
